<svg width="24" height="18" viewBox="0 0 24 18" fill="none" xmlns="http://www.w3.org/2000/svg">
<g clip-path="url(#clip0_3_477)">
<path fill-rule="evenodd" clip-rule="evenodd" d="M0 0H7.99875V18H0V0Z" fill="#00319C"/>
<path fill-rule="evenodd" clip-rule="evenodd" d="M7.99902 0H16.0015V18H7.99902V0Z" fill="#FFDE00"/>
<path fill-rule="evenodd" clip-rule="evenodd" d="M16.001 0H23.9997V18H16.001V0Z" fill="#DE2110"/>
<path fill-rule="evenodd" clip-rule="evenodd" d="M13.5146 12.015L14.4221 13.3275C14.4746 13.4025 14.5234 13.4737 14.4484 13.5225C14.3734 13.5712 14.3959 13.7625 14.4484 13.8375C14.5496 13.9837 14.6734 14.0062 14.7484 13.9575L15.4384 13.5225C15.5134 13.4775 15.5396 13.3537 15.4384 13.2075C15.3821 13.1325 15.2134 13.0387 15.1384 13.0875C15.0596 13.1362 15.0071 13.0612 14.9584 12.99L14.0471 11.6775" fill="#FF1900"/>
<path d="M13.5146 12.015L14.4221 13.3275C14.4746 13.4025 14.5234 13.4737 14.4484 13.5225C14.3734 13.5712 14.3959 13.7625 14.4484 13.8375C14.5496 13.9837 14.6734 14.0062 14.7484 13.9575L15.4384 13.5225C15.5134 13.4775 15.5396 13.3537 15.4384 13.2075C15.3821 13.1325 15.2134 13.0387 15.1384 13.0875C15.0596 13.1362 15.0071 13.0612 14.9584 12.99L14.0471 11.6775" stroke="black" stroke-width="0.02625"/>
<path fill-rule="evenodd" clip-rule="evenodd" d="M13.8712 11.0899C14.2771 11.5509 14.4183 12.0795 14.187 12.2654C13.9556 12.4514 13.4348 12.228 13.0289 11.767C12.623 11.3059 12.4838 10.7758 12.7151 10.5898C12.9465 10.4038 13.4657 10.6253 13.8732 11.0883L13.8712 11.0899Z" fill="#A77B3B" stroke="black" stroke-width="0.0631785"/>
<path fill-rule="evenodd" clip-rule="evenodd" d="M9.82488 11.4788L9.01863 12.855C8.97363 12.93 8.92863 13.005 8.84988 12.9675C8.77113 12.9225 8.60238 13.0313 8.55738 13.11C8.46738 13.26 8.50113 13.38 8.58363 13.425L9.30363 13.8075C9.37863 13.8488 9.50613 13.815 9.59613 13.665C9.63738 13.5825 9.64863 13.3913 9.56988 13.35C9.49113 13.3088 9.53238 13.23 9.58113 13.155L10.3836 11.7788" fill="#FF1900"/>
<path d="M9.82488 11.4788L9.01863 12.855C8.97363 12.93 8.92863 13.005 8.84988 12.9675C8.77113 12.9225 8.60238 13.0313 8.55738 13.11C8.46738 13.26 8.50113 13.38 8.58363 13.425L9.30363 13.8075C9.37863 13.8488 9.50613 13.815 9.59613 13.665C9.63738 13.5825 9.64863 13.3913 9.56988 13.35C9.49113 13.3088 9.53238 13.23 9.58113 13.155L10.3836 11.7788" stroke="black" stroke-width="0.02625"/>
<path fill-rule="evenodd" clip-rule="evenodd" d="M12.42 10.5225H11.685C11.6625 10.545 11.4525 11.8575 11.2275 12.36C10.9537 12.9713 10.1325 13.5113 10.1325 13.5113C10.1325 13.5113 10.6237 13.6613 10.77 13.7588C10.8075 13.7475 11.595 13.5825 11.685 12.6225C11.775 13.5825 11.1375 14.0213 11.1375 14.0213C11.1375 14.0213 12.0525 14.2838 12.0525 14.895C12.0525 14.2838 12.9675 14.0213 12.9675 14.0213C12.9675 14.0213 12.51 13.5825 12.4162 12.6225C12.6037 13.5825 13.2975 13.7475 13.335 13.7588C13.4812 13.6613 13.9725 13.5113 13.9725 13.5113C13.9725 13.5113 13.1512 12.9713 12.8775 12.36C12.6525 11.8575 12.4425 10.545 12.42 10.5225ZM9.30746 6.14625L10.68 6.585C11.1337 6.585 11.595 6.14625 11.595 5.7075C11.61 4.7325 11.2275 4.395 11.1375 4.395L11.3175 4.2225L11.0437 3.96C11.0437 3.96 11.1375 3.50625 12.0525 3.52125C12.9675 3.54 12.9675 3.96 12.9675 4.395C12.9675 4.83 12.51 4.83375 12.51 5.7075C12.51 6.14625 12.9675 6.585 13.425 6.585L14.7975 6.14625V10.5225H9.30371L9.30746 6.14625Z" fill="#A77B3B" stroke="black" stroke-width="0.06375"/>
<path d="M11.4102 6.32138L11.5014 6.58448L11.5933 6.32138L11.6846 6.58448L11.8678 6.32138L11.9572 6.59851L12.051 6.32138L12.186 6.59851L12.3254 6.32138L12.4167 6.58448L12.5086 6.32138" stroke="black" stroke-width="0.00523592"/>
<path d="M11.7772 5.36038L11.5938 6.32334M11.8676 5.36038V6.32334M12.0511 5.36038V6.32334M12.2346 5.36038L12.325 6.32334M12.418 5.36038L12.5085 6.32334" stroke="black" stroke-width="0.00505175"/>
<path fill-rule="evenodd" clip-rule="evenodd" d="M8.38768 3.52338C7.47296 3.96041 7.47296 4.83694 7.47296 5.27398C7.50397 5.6715 7.47296 14.022 7.47296 14.022C7.47296 14.022 7.53239 13.5282 7.93032 13.148L8.38509 12.7109L8.84245 12.2739C9.17836 11.9826 9.2998 11.3974 9.2998 10.9603V4.83694C9.2998 4.83694 9.2998 4.39744 8.38509 3.52338H8.38768Z" fill="#A77B3B" stroke="black" stroke-width="0.0631468"/>
<path d="M9.30176 5.27396C9.29142 5.27396 8.8444 4.83693 8.8444 4.83693L8.38704 5.27396L7.92969 4.83693L7.47233 5.27396" stroke="black" stroke-width="0.0631468"/>
<path d="M9.30176 5.70979C9.29142 5.70979 8.8444 6.14682 8.8444 6.14682L8.38704 5.70979L7.92969 6.14682L7.47233 5.70979" stroke="black" stroke-width="0.0631468"/>
<path d="M9.30176 7.02144C9.29142 7.02144 8.8444 6.58441 8.8444 6.58441L8.38704 7.02144L7.92969 6.58441L7.47233 7.02144" stroke="black" stroke-width="0.0631468"/>
<path d="M8.83956 4.83578L8.84473 12.2742" stroke="black" stroke-width="0.0869755"/>
<path d="M8.38936 5.27304L8.39453 12.6934" stroke="black" stroke-width="0.0823988"/>
<path d="M7.93233 4.83777L7.9375 13.1503" stroke="black" stroke-width="0.0872116"/>
<path fill-rule="evenodd" clip-rule="evenodd" d="M15.7139 3.52338C16.6286 3.96041 16.6286 4.83694 16.6286 5.27398C16.5976 5.6715 16.6286 14.022 16.6286 14.022C16.6286 14.022 16.5692 13.5282 16.1712 13.148L15.7165 12.7109L15.2591 12.2739C14.9232 11.9826 14.8018 11.3974 14.8018 10.9603V4.83694C14.8018 4.83694 14.8018 4.39744 15.7165 3.52338H15.7139Z" fill="#A77B3B" stroke="black" stroke-width="0.0631468"/>
<path d="M14.7988 5.27396C14.8092 5.27396 15.2562 4.83693 15.2562 4.83693L15.7135 5.27396L16.1709 4.83693L16.6283 5.27396" stroke="black" stroke-width="0.0631468"/>
<path d="M14.7988 5.70979C14.8092 5.70979 15.2562 6.14682 15.2562 6.14682L15.7135 5.70979L16.1709 6.14682L16.6283 5.70979" stroke="black" stroke-width="0.0631468"/>
<path d="M14.7988 7.02144C14.8092 7.02144 15.2562 6.58441 15.2562 6.58441L15.7135 7.02144L16.1709 6.58441L16.6283 7.02144" stroke="black" stroke-width="0.0631468"/>
<path d="M15.261 4.83578L15.2559 12.2742" stroke="black" stroke-width="0.0869755"/>
<path d="M15.7151 5.27304L15.71 12.6934" stroke="black" stroke-width="0.0823988"/>
<path d="M16.1722 4.83777L16.167 13.1503" stroke="black" stroke-width="0.0872116"/>
<path fill-rule="evenodd" clip-rule="evenodd" d="M10.8473 11.3576C10.6048 11.9137 10.1781 12.2761 9.899 12.165C9.61993 12.0539 9.58873 11.5092 9.83122 10.9531C10.0737 10.3969 10.5028 10.0355 10.7819 10.1466C11.061 10.2577 11.0932 10.8002 10.8497 11.3585L10.8473 11.3576Z" fill="#A77B3B" stroke="black" stroke-width="0.0631632"/>
<path fill-rule="evenodd" clip-rule="evenodd" d="M9.30371 6.58499H14.7975V9.20999H9.30371V6.58499Z" fill="#FF0000"/>
<path fill-rule="evenodd" clip-rule="evenodd" d="M9.30355 9.20999H14.7973V10.5225C14.7973 11.3962 13.4248 11.3962 12.0523 12.27C10.6761 11.4 9.2998 11.4 9.2998 10.5225L9.30355 9.20999Z" fill="#564DFF"/>
<path d="M9.30469 6.58508H14.7981V10.5258C14.7981 11.3999 13.4261 11.3999 12.0514 12.2764C10.6793 11.3999 9.30469 11.3999 9.30469 10.5233V6.58755V6.58508Z" stroke="#FFFF00" stroke-width="0.0505175"/>
<path fill-rule="evenodd" clip-rule="evenodd" d="M11.0432 6.7598C11.0432 6.7598 10.1279 7.40326 10.1279 8.01889C10.1279 8.63453 11.0884 8.8409 11.0884 8.8409C11.0884 8.8409 10.7682 8.8409 10.7682 9.66174C10.7682 10.0733 11.7287 9.86811 11.7287 10.0733C11.7287 10.2785 11.716 10.7748 11.7287 11.1005C11.7287 11.3058 11.0884 11.1005 11.0884 11.3058C11.0884 11.4078 11.5695 11.9214 12.0507 11.9214C12.5318 11.9214 13.0111 11.4078 13.0111 11.3058C13.0111 11.1005 12.3708 11.3058 12.3708 11.1005V10.0733C12.3708 9.86811 13.3313 10.0733 13.3313 9.66174C13.3313 8.8409 13.0111 8.8409 13.0111 8.8409C13.0111 8.8409 13.9734 8.63568 13.9734 8.01889C13.9734 7.4021 13.0563 6.7598 13.0563 6.7598C13.0563 6.7598 13.5718 7.60847 13.5718 8.01889C13.5718 8.2241 13.3313 8.63569 12.691 8.63569C12.691 8.63569 12.5282 8.42931 12.3708 8.63569C12.3708 8.63569 12.1863 8.42931 12.0507 8.63569C12.0036 8.70525 11.9204 8.42931 11.7287 8.63569C11.6491 8.69018 11.584 8.42931 11.4085 8.63569C11.0884 8.63569 10.4481 8.42931 10.4481 8.01889C10.4481 7.60847 11.0432 6.7598 11.0432 6.7598Z" fill="#FFFF00" stroke="black" stroke-width="0.0362032"/>
<path fill-rule="evenodd" clip-rule="evenodd" d="M11.0622 10.4353C10.9971 10.477 11.1454 11.146 11.1888 11.175C11.2539 11.2155 11.6392 11.2155 11.7025 11.175C11.7477 11.146 11.7025 10.5176 11.6392 10.477C11.5741 10.4353 11.1074 10.4074 11.0604 10.4353H11.0622Z" fill="#FFFF00" stroke="black" stroke-width="0.0362032"/>
<path fill-rule="evenodd" clip-rule="evenodd" d="M13.0433 10.4353C13.1084 10.477 12.9601 11.146 12.9167 11.175C12.8516 11.2155 12.4663 11.2155 12.403 11.175C12.3578 11.146 12.403 10.5176 12.4663 10.477C12.5314 10.4353 12.9981 10.4074 13.0451 10.4353H13.0433Z" fill="#FFFF00" stroke="black" stroke-width="0.0362032"/>
<path fill-rule="evenodd" clip-rule="evenodd" d="M11.7209 10.1913C11.7209 10.2526 11.6859 10.3115 11.6235 10.3548C11.5611 10.3982 11.4765 10.4226 11.3883 10.4226C11.3001 10.4226 11.2155 10.3982 11.1531 10.3548C11.0907 10.3115 11.0557 10.2526 11.0557 10.1913C11.0557 10.13 11.0907 10.0712 11.1531 10.0278C11.2155 9.98442 11.3001 9.96005 11.3883 9.96005C11.4765 9.96005 11.5611 9.98442 11.6235 10.0278C11.6859 10.0712 11.7209 10.13 11.7209 10.1913Z" fill="#FFFF00" stroke="black" stroke-width="0.0433361"/>
<path fill-rule="evenodd" clip-rule="evenodd" d="M13.0452 10.1914C13.0452 10.2527 13.0101 10.3116 12.9477 10.3549C12.8854 10.3983 12.8008 10.4227 12.7125 10.4227C12.6243 10.4227 12.5397 10.3983 12.4773 10.3549C12.4149 10.3116 12.3799 10.2527 12.3799 10.1914C12.3799 10.1301 12.4149 10.0712 12.4773 10.0279C12.5397 9.98451 12.6243 9.96014 12.7125 9.96014C12.8008 9.96014 12.8854 9.98451 12.9477 10.0279C13.0101 10.0712 13.0452 10.1301 13.0452 10.1914Z" fill="#FFFF00" stroke="black" stroke-width="0.0433371"/>
<path fill-rule="evenodd" clip-rule="evenodd" d="M12.6296 11.5312C12.6296 11.5875 12.5546 11.6325 12.4684 11.6325C12.3784 11.6325 12.3071 11.5875 12.3071 11.5312C12.3071 11.475 12.3821 11.43 12.4684 11.43C12.5546 11.43 12.6296 11.475 12.6296 11.5312ZM11.7934 11.5312C11.7934 11.5875 11.7221 11.6325 11.6359 11.6325C11.5459 11.6325 11.4746 11.5875 11.4746 11.5312C11.4746 11.475 11.5459 11.43 11.6359 11.43C11.7221 11.43 11.7934 11.475 11.7934 11.5312Z" fill="black"/>
<path fill-rule="evenodd" clip-rule="evenodd" d="M12.052 8.25012L11.8553 8.002L11.5326 8.04295L11.578 7.73461L11.3184 7.54913L11.578 7.36124L11.5326 7.0529L11.8553 7.09626L12.052 6.84814L12.2486 7.09626L12.5687 7.0529L12.5259 7.36124L12.783 7.54913L12.5259 7.73702L12.5687 8.04295L12.2461 8.002L12.052 8.25012Z" fill="#FFFF00" stroke="black" stroke-width="0.027107"/>
<path fill-rule="evenodd" clip-rule="evenodd" d="M13.4238 9.20972L13.9742 9.47392L14.5246 9.20972L13.9742 8.948L13.4238 9.20972Z" fill="#FFFF00" stroke="black" stroke-width="0.0277846"/>
<path fill-rule="evenodd" clip-rule="evenodd" d="M9.48633 9.20972L10.0367 9.47392L10.5871 9.20972L10.0367 8.948L9.48633 9.20972Z" fill="#FFFF00" stroke="black" stroke-width="0.0277846"/>
<path fill-rule="evenodd" clip-rule="evenodd" d="M14.273 10.7754C14.1045 10.6685 13.8206 10.7218 13.6615 10.8091C13.5024 10.8964 13.3433 10.9837 13.322 11.3001C13.1392 10.996 13.2831 10.7149 13.5251 10.5821C13.6535 10.5218 13.8004 10.5084 13.9384 10.5444C14.0763 10.5804 14.1958 10.6633 14.2743 10.7775L14.273 10.7754Z" fill="#FFFF00" stroke="black" stroke-width="0.0277954"/>
<path fill-rule="evenodd" clip-rule="evenodd" d="M10.4932 10.2599C10.4932 10.306 10.474 10.3503 10.4399 10.3829C10.4057 10.4156 10.3594 10.4339 10.3111 10.4339C10.2628 10.4339 10.2164 10.4156 10.1823 10.3829C10.1481 10.3503 10.1289 10.306 10.1289 10.2599C10.1289 10.2137 10.1481 10.1694 10.1823 10.1368C10.2164 10.1041 10.2628 10.0858 10.3111 10.0858C10.3594 10.0858 10.4057 10.1041 10.4399 10.1368C10.474 10.1694 10.4932 10.2137 10.4932 10.2599Z" fill="#FFFF00" stroke="black" stroke-width="0.0277846"/>
<path fill-rule="evenodd" clip-rule="evenodd" d="M10.3096 10.8711C10.3096 10.9173 10.2905 10.9616 10.2563 10.9942C10.2221 11.0269 10.1758 11.0452 10.1275 11.0452C10.0792 11.0452 10.0328 11.0269 9.99867 10.9942C9.9645 10.9616 9.94531 10.9173 9.94531 10.8711C9.94531 10.825 9.9645 10.7807 9.99867 10.748C10.0328 10.7154 10.0792 10.6971 10.1275 10.6971C10.1758 10.6971 10.2221 10.7154 10.2563 10.748C10.2905 10.7807 10.3096 10.825 10.3096 10.8711Z" fill="#FFFF00" stroke="black" stroke-width="0.0277846"/>
<path fill-rule="evenodd" clip-rule="evenodd" d="M10.2188 10.5224C10.2188 10.5685 10.1996 10.6128 10.1655 10.6455C10.1313 10.6781 10.085 10.6964 10.0367 10.6964C9.98835 10.6964 9.94201 10.6781 9.90785 10.6455C9.87368 10.6128 9.85449 10.5685 9.85449 10.5224C9.85449 10.4762 9.87368 10.4319 9.90785 10.3993C9.94201 10.3666 9.98835 10.3483 10.0367 10.3483C10.085 10.3483 10.1313 10.3666 10.1655 10.3993C10.1996 10.4319 10.2188 10.4762 10.2188 10.5224Z" fill="#FFFF00" stroke="black" stroke-width="0.0277846"/>
<path fill-rule="evenodd" clip-rule="evenodd" d="M10.6768 10.8711C10.6768 10.9173 10.6576 10.9616 10.6235 10.9942C10.5893 11.0269 10.543 11.0452 10.4947 11.0452C10.4464 11.0452 10.4 11.0269 10.3659 10.9942C10.3317 10.9616 10.3125 10.9173 10.3125 10.8711C10.3125 10.825 10.3317 10.7807 10.3659 10.748C10.4 10.7154 10.4464 10.6971 10.4947 10.6971C10.543 10.6971 10.5893 10.7154 10.6235 10.748C10.6576 10.7807 10.6768 10.825 10.6768 10.8711Z" fill="#FFFF00" stroke="black" stroke-width="0.0277846"/>
<path fill-rule="evenodd" clip-rule="evenodd" d="M10.7667 10.5224C10.7667 10.5685 10.7475 10.6128 10.7133 10.6455C10.6792 10.6781 10.6328 10.6964 10.5845 10.6964C10.5362 10.6964 10.4899 10.6781 10.4557 10.6455C10.4215 10.6128 10.4023 10.5685 10.4023 10.5224C10.4023 10.4762 10.4215 10.4319 10.4557 10.3993C10.4899 10.3666 10.5362 10.3483 10.5845 10.3483C10.6328 10.3483 10.6792 10.3666 10.7133 10.3993C10.7475 10.4319 10.7667 10.4762 10.7667 10.5224Z" fill="#FFFF00" stroke="black" stroke-width="0.0277846"/>
<path fill-rule="evenodd" clip-rule="evenodd" d="M10.4932 10.6086C10.4932 10.6548 10.474 10.6991 10.4399 10.7317C10.4057 10.7643 10.3594 10.7827 10.3111 10.7827C10.2628 10.7827 10.2164 10.7643 10.1823 10.7317C10.1481 10.6991 10.1289 10.6548 10.1289 10.6086C10.1289 10.5624 10.1481 10.5182 10.1823 10.4855C10.2164 10.4529 10.2628 10.4345 10.3111 10.4345C10.3594 10.4345 10.4057 10.4529 10.4399 10.4855C10.474 10.5182 10.4932 10.5624 10.4932 10.6086Z" fill="#FFFF00" stroke="black" stroke-width="0.0277846"/>
<path fill-rule="evenodd" clip-rule="evenodd" d="M11.1676 4.51499C10.7026 4.51499 10.6426 4.58999 10.4326 4.66124C10.4326 4.45874 10.9501 4.22249 11.4076 4.22249C11.4076 4.36874 11.2876 4.51499 11.1676 4.51499Z" fill="#DA4500"/>
<path fill-rule="evenodd" clip-rule="evenodd" d="M11.8695 4.05C11.8695 4.14375 11.787 4.2225 11.6857 4.2225C11.5845 4.2225 11.502 4.14375 11.502 4.04625C11.502 3.94875 11.5845 3.87375 11.6857 3.87375C11.787 3.87375 11.8695 3.94875 11.8695 4.04625V4.05Z" fill="#CAC9C7"/>
<path fill-rule="evenodd" clip-rule="evenodd" d="M9.94629 3.43695V3.69867H10.4036V5.00977H10.6801V3.69867H11.1375V3.43695H10.6801V3.08633H10.4011V3.43695H9.94629Z" fill="#FFFF00" stroke="black" stroke-width="0.0277846"/>
<path fill-rule="evenodd" clip-rule="evenodd" d="M11.4112 4.22249C11.039 4.20122 10.6662 4.25085 10.3125 4.36874C10.3125 4.09874 10.6275 3.78374 11.1675 3.78374C11.2875 3.78374 11.4112 4.07624 11.4112 4.22249Z" fill="#DA4500"/>
<path fill-rule="evenodd" clip-rule="evenodd" d="M6.64638 8.86831C6.51459 8.58425 6.51765 8.49359 6.75209 8.81861L9.57601 14.1722L9.48957 14.1966L6.64783 8.86942L6.64638 8.86831Z" fill="#008500" stroke="black" stroke-width="0.0096311"/>
<path fill-rule="evenodd" clip-rule="evenodd" d="M8.56467 12.39C8.59467 11.9925 7.86717 11.565 7.83717 11.5913C7.81092 11.6213 7.88217 11.8538 8.02092 11.97C7.75842 11.835 7.48092 11.7525 7.47342 11.8088C7.45092 11.8913 7.88592 12.0788 7.92342 12.1538C7.92342 12.2063 7.60092 12.1988 7.60842 12.2513C7.61592 12.3038 8.51967 12.7613 8.56467 12.39ZM7.83717 11.235C7.86717 10.8375 7.13967 10.41 7.11342 10.4363C7.08342 10.4625 7.15467 10.695 7.29342 10.815C7.03092 10.68 6.75342 10.5938 6.74592 10.6538C6.72717 10.7325 7.15842 10.9238 7.19592 10.9988C7.19967 11.0513 6.87717 11.0438 6.88092 11.0963C6.88842 11.1488 7.79217 11.6025 7.83717 11.235ZM7.28217 10.185C7.31217 9.78751 6.58467 9.36001 6.55467 9.38626C6.52842 9.41251 6.59967 9.64501 6.73842 9.76501C6.47592 9.63001 6.19842 9.54376 6.19092 9.60376C6.17217 9.68251 6.60342 9.87376 6.64092 9.94876C6.64092 10.0013 6.32217 9.99376 6.32592 10.0463C6.33342 10.0988 7.23717 10.5563 7.28217 10.185ZM6.73467 9.04501C6.76092 8.65126 6.03717 8.22001 6.00717 8.24626C5.97717 8.27626 6.05217 8.50876 6.18717 8.62876C5.92467 8.49001 5.64717 8.40751 5.64342 8.46751C5.62092 8.54626 6.05592 8.73751 6.08967 8.80876C6.09342 8.86126 5.77092 8.85751 5.77842 8.91001C5.78217 8.96251 6.68592 9.41626 6.73467 9.04501Z" fill="#008F00"/>
<path fill-rule="evenodd" clip-rule="evenodd" d="M6.92181 8.99624C7.27431 8.78249 7.20306 7.96874 7.16556 7.96124C7.12431 7.95749 6.97056 8.14874 6.95181 8.32874C6.91056 8.04374 6.81681 7.78124 6.76431 7.81124C6.68556 7.84124 6.77931 8.28749 6.73806 8.35874C6.70056 8.39624 6.51306 8.14124 6.47556 8.17874C6.43056 8.21624 6.58056 9.17999 6.92556 8.99624H6.92181ZM7.43181 9.99374C7.83681 9.90374 8.05806 9.11624 8.02056 9.09749C7.98306 9.07874 7.77306 9.20999 7.69431 9.37499C7.75431 9.09374 7.75806 8.81624 7.69431 8.82749C7.60806 8.83124 7.54431 9.28124 7.48056 9.33374C7.43181 9.35624 7.34181 9.05999 7.29306 9.07874C7.24056 9.10124 7.04556 10.0575 7.43181 9.99374ZM8.03931 11.0137C8.41056 10.8337 8.41431 10.0162 8.37681 10.0087C8.33931 9.99749 8.17056 10.1775 8.13306 10.3537C8.11806 10.065 8.05056 9.79874 7.99431 9.82499C7.91181 9.84749 7.96431 10.2975 7.91931 10.365C7.87431 10.3987 7.71306 10.1287 7.66806 10.1625C7.62306 10.1925 7.68306 11.1675 8.04306 11.0137H8.03931ZM8.69931 12.3487C9.08556 12.2025 9.17931 11.3925 9.14181 11.3775C9.10431 11.3662 8.91681 11.5275 8.86056 11.7C8.87556 11.4112 8.83806 11.1375 8.77806 11.16C8.69181 11.175 8.69931 11.6287 8.64681 11.6925C8.59806 11.7187 8.46681 11.4375 8.42181 11.4675C8.37306 11.49 8.32806 12.4687 8.69931 12.3487Z" fill="#008F00"/>
<path fill-rule="evenodd" clip-rule="evenodd" d="M9.55037 13.7402C9.45212 13.9083 9.14137 13.9235 8.85259 13.7695C8.5638 13.6154 8.41429 13.3547 8.51254 13.1865C8.61079 13.0183 8.92379 13.0043 9.21032 13.1572C9.49685 13.3101 9.64862 13.572 9.55037 13.7402Z" fill="#FF1900" stroke="black" stroke-width="0.0277952"/>
<path fill-rule="evenodd" clip-rule="evenodd" d="M17.0073 8.10781L17.0559 7.98233L17.1868 8.02356L17.2354 7.89808L17.3664 7.93932L17.3185 8.06304L17.4532 8.10545L17.4039 8.2327L17.2692 8.19029L17.148 8.50311L17.017 8.46187L17.1382 8.14905L17.0073 8.10781ZM16.726 9.21301L16.8569 9.25425L15.4498 12.8862L15.3188 12.845L16.726 9.21301Z" fill="#FFFF00" stroke="black" stroke-width="0.00964039"/>
<path fill-rule="evenodd" clip-rule="evenodd" d="M15.2752 12.7619L15.5408 12.8455L15.1526 13.8476L14.8869 13.764L15.2752 12.7619ZM16.8372 8.5461L17.2356 8.67159C17.4994 8.75465 16.9012 9.33966 16.9012 9.33966L16.6375 9.25659C16.6375 9.25659 16.5715 8.46245 16.8372 8.5461ZM17.2034 8.55435C17.1829 8.60737 17.1084 8.63153 17.0355 8.60855C16.9625 8.58558 16.9191 8.52431 16.9389 8.47305C16.9588 8.4218 17.0339 8.39588 17.1069 8.41885C17.1798 8.44183 17.2233 8.5031 17.2027 8.55612L17.2034 8.55435Z" fill="#FFFF00" stroke="black" stroke-width="0.00964039"/>
<path fill-rule="evenodd" clip-rule="evenodd" d="M15.4885 13.2825C15.5998 13.443 15.4714 13.7138 15.1956 13.8884C14.9199 14.0629 14.6088 14.0702 14.4975 13.9096C14.3862 13.7491 14.5168 13.4769 14.7904 13.3037C15.064 13.1306 15.3772 13.1219 15.4885 13.2825Z" fill="#FF1900" stroke="black" stroke-width="0.027797"/>
</g>
<defs>
<clipPath id="clip0_3_477">
<rect width="24" height="18" fill="white"/>
</clipPath>
</defs>
</svg>
