<svg width="96" height="40" viewBox="0 0 96 40" fill="none" xmlns="http://www.w3.org/2000/svg">
<rect width="40" height="40" rx="20" fill="url(#paint0_linear_3_265)"/>
<g clip-path="url(#clip0_3_265)">
<path d="M26.0876 15.9235H13.9127C13.6419 15.9235 13.4224 16.143 13.4224 16.4138V26.6234C13.4224 26.8943 13.6419 27.1138 13.9127 27.1138H16.0832V30.5545C16.0832 31.3528 16.7304 32 17.5287 32C18.327 32 18.9742 31.3528 18.9742 30.5545V27.1138H20.996V30.5545C20.996 31.3528 21.6432 32 22.4415 32C23.2398 32 23.887 31.3528 23.887 30.5545V27.1138H26.0877C26.3585 27.1138 26.578 26.8943 26.578 26.6234V16.4138C26.578 16.143 26.3584 15.9235 26.0876 15.9235Z" fill="white"/>
<path d="M11.361 15.9211C10.5627 15.9211 9.91553 16.5682 9.91553 17.3666V23.2377C9.91553 24.036 10.5627 24.6832 11.361 24.6832C12.1593 24.6832 12.8065 24.036 12.8065 23.2377V17.3666C12.8065 16.5683 12.1593 15.9211 11.361 15.9211Z" fill="white"/>
<path d="M28.6389 15.9211C27.8406 15.9211 27.1934 16.5682 27.1934 17.3666V23.2377C27.1934 24.036 27.8405 24.6832 28.6389 24.6832C29.4372 24.6832 30.0844 24.036 30.0844 23.2377V17.3666C30.0844 16.5683 29.4372 15.9211 28.6389 15.9211Z" fill="white"/>
<path d="M14.0114 15.2074H25.9605C26.2722 15.2074 26.5047 14.9203 26.4406 14.6152C26.0454 12.7314 24.846 11.1438 23.2186 10.2267L24.2401 8.38366C24.3092 8.25887 24.2641 8.10162 24.1393 8.03249C24.0143 7.96318 23.8572 8.00844 23.7881 8.13322L22.7589 9.99019C21.9159 9.599 20.9764 9.38052 19.9859 9.38052C18.9953 9.38052 18.0559 9.599 17.2129 9.99019L16.1837 8.13316C16.1145 8.00832 15.9572 7.9633 15.8325 8.03243C15.7077 8.10156 15.6626 8.25882 15.7318 8.3836L16.7533 10.2267C15.1258 11.1438 13.9264 12.7313 13.5312 14.6152C13.4671 14.9203 13.6996 15.2074 14.0114 15.2074ZM23.5514 12.4607C23.5514 12.7675 23.3026 13.0163 22.9957 13.0163C22.6889 13.0163 22.4401 12.7676 22.4401 12.4607C22.4401 12.1538 22.6888 11.905 22.9957 11.905C23.3026 11.905 23.5514 12.1538 23.5514 12.4607ZM16.976 11.905C17.2828 11.905 17.5316 12.1538 17.5316 12.4607C17.5316 12.7675 17.2829 13.0163 16.976 13.0163C16.6691 13.0163 16.4203 12.7676 16.4203 12.4607C16.4203 12.1538 16.6691 11.905 16.976 11.905Z" fill="white"/>
</g>
<rect x="56" width="40" height="40" rx="20" fill="url(#paint1_linear_3_265)"/>
<path fill-rule="evenodd" clip-rule="evenodd" d="M79.6849 11.8314C80.5598 10.8175 81.1495 9.40518 80.9881 8C79.7273 8.048 78.202 8.80538 77.298 9.81816C76.4863 10.717 75.7776 12.1531 75.9681 13.5307C77.3745 13.6351 78.81 12.8466 79.6849 11.8314ZM82.8386 20.75C82.8738 24.3824 86.1634 25.5907 86.1998 25.6063C86.1731 25.6915 85.6744 27.3279 84.467 29.0199C83.4222 30.4815 82.3387 31.9372 80.6313 31.9684C78.9544 31.9984 78.4144 31.0156 76.496 31.0156C74.5787 31.0156 73.9793 31.937 72.3921 31.9982C70.7443 32.057 69.4884 30.4169 68.4363 28.9602C66.2837 25.9806 64.6395 20.5401 66.8479 16.8682C67.9449 15.0454 69.9046 13.8893 72.0329 13.8605C73.6505 13.8305 75.1782 14.9035 76.1671 14.9035C77.1561 14.9035 79.0126 13.6135 80.9638 13.8031C81.7805 13.8355 84.0739 14.1186 85.5458 16.1838C85.4268 16.2546 82.8095 17.714 82.8386 20.75Z" fill="white"/>
<defs>
<linearGradient id="paint0_linear_3_265" x1="0" y1="20" x2="40" y2="20" gradientUnits="userSpaceOnUse">
<stop stop-color="#34BDE3"/>
<stop offset="1" stop-color="#0379CC"/>
</linearGradient>
<linearGradient id="paint1_linear_3_265" x1="56" y1="20" x2="96" y2="20" gradientUnits="userSpaceOnUse">
<stop stop-color="#34BDE3"/>
<stop offset="1" stop-color="#0379CC"/>
</linearGradient>
<clipPath id="clip0_3_265">
<rect width="24" height="24" fill="white" transform="translate(8 8)"/>
</clipPath>
</defs>
</svg>
