<?xml version="1.0" encoding="utf-8"?>
<!-- Generator: Adobe Illustrator 25.2.3, SVG Export Plug-In . SVG Version: 6.00 Build 0) -->
<svg version="1.1" id="Layer_1" xmlns="http://www.w3.org/2000/svg" xmlns:xlink="http://www.w3.org/1999/xlink" x="0px" y="0px" viewBox="0 0 500 500" xml:space="preserve">
	<style type="text/css">
		.st0{fill:#010101;}
		.st1{fill:#FFFFFF;}
		.st2{fill:#FE0000;}
		.st3{fill:url(#SVGID_1_);}
		.st4{fill:url(#SVGID_2_);}
		.st5{fill:url(#SVGID_3_);}
		.st6{fill:url(#SVGID_4_);}
		.st7{fill:url(#SVGID_5_);}
		.st8{fill:url(#SVGID_6_);}
		.st9{fill:url(#SVGID_7_);}
		.st10{fill:url(#SVGID_8_);}
		.st11{fill:url(#SVGID_9_);}
		.st12{fill:url(#SVGID_10_);}
		.st13{fill:url(#SVGID_11_);}
		.st14{fill:url(#SVGID_12_);}
		.st15{fill:url(#SVGID_13_);}
		.st16{fill:url(#SVGID_14_);}
		.st17{fill:url(#SVGID_15_);}
		.st18{fill:#010101;stroke:#010101;stroke-width:6;stroke-miterlimit:10;}
		.st19{fill:url(#SVGID_16_);}
	</style>
	<g>
		<path class="st1" d="M121.3,296.9c-2.8,0-5.3-0.3-7.5-0.9c-2.3-0.6-4.5-1.7-6.7-3.2v-9.1h5.8l0.8,5.3c0.8,0.7,1.8,1.2,3.2,1.6
		c1.4,0.4,2.8,0.6,4.4,0.6c1.4,0,2.5-0.2,3.4-0.6c0.9-0.4,1.6-0.9,2.1-1.6c0.5-0.7,0.7-1.5,0.7-2.5c0-0.9-0.2-1.7-0.7-2.4
		c-0.4-0.7-1.2-1.3-2.2-1.9c-1-0.6-2.4-1.1-4.1-1.7c-3-0.9-5.4-1.8-7.4-2.9s-3.4-2.3-4.4-3.7c-1-1.4-1.5-3.2-1.5-5.2
		c0-2,0.6-3.8,1.7-5.4c1.1-1.6,2.7-2.8,4.7-3.7c2-0.9,4.3-1.4,6.9-1.4c2.9,0,5.4,0.3,7.7,1c2.2,0.7,4.1,1.7,5.8,3v8.4h-5.6l-1-5.1
		c-0.7-0.4-1.5-0.8-2.6-1.1c-1.1-0.3-2.4-0.5-3.8-0.5c-1.2,0-2.3,0.2-3.2,0.5c-0.9,0.4-1.6,0.9-2.2,1.6s-0.8,1.5-0.8,2.5
		c0,0.8,0.2,1.6,0.7,2.2c0.5,0.6,1.2,1.2,2.3,1.8c1.1,0.6,2.6,1.2,4.5,1.8c4.1,1.1,7.3,2.7,9.4,4.6c2.1,1.9,3.2,4.4,3.2,7.4
		c0,2.1-0.6,4-1.7,5.5s-2.8,2.7-4.8,3.6C126.5,296.5,124.1,296.9,121.3,296.9z" />
		<path class="st1" d="M138.1,307.1v-4.5l3.6-0.8v-27.9l-4-0.8v-4.5h10.9l0.4,3.2c0.8-1.2,1.8-2.1,3-2.8s2.6-1,4.2-1
		c2.2,0,4.2,0.6,5.8,1.8c1.6,1.2,2.8,2.9,3.7,5.1s1.3,4.8,1.3,7.7v0.5c0,2.7-0.4,5.1-1.3,7.2c-0.8,2.1-2.1,3.6-3.7,4.8
		c-1.6,1.1-3.5,1.7-5.8,1.7c-1.5,0-2.8-0.3-4-0.8c-1.1-0.5-2.1-1.3-2.9-2.4v8.1l3.6,0.8v4.5H138.1z M153.9,291.1
		c1.9,0,3.3-0.7,4.2-2.1s1.3-3.4,1.3-5.8v-0.5c0-1.8-0.2-3.3-0.6-4.6c-0.4-1.3-1-2.3-1.8-3.1c-0.8-0.7-1.9-1.1-3.1-1.1
		c-1,0-1.9,0.2-2.7,0.7c-0.8,0.5-1.4,1.1-1.9,2v12.2c0.5,0.8,1.1,1.4,1.9,1.8C151.9,290.9,152.8,291.1,153.9,291.1z" />
		<path class="st1" d="M183.9,296.9c-2.7,0-5-0.6-7-1.8c-2-1.2-3.5-2.8-4.6-4.9c-1.1-2.1-1.6-4.4-1.6-7.1v-1c0-2.8,0.5-5.2,1.5-7.3
		c1-2.1,2.5-3.8,4.4-5s4.1-1.8,6.7-1.8c2.5,0,4.6,0.5,6.4,1.5s3,2.4,3.9,4.3c0.9,1.9,1.3,4.1,1.3,6.8v4.1h-16.4l-0.1,0.2
		c0.1,1.2,0.4,2.3,0.9,3.3s1.2,1.7,2.1,2.2c0.9,0.5,2.1,0.8,3.4,0.8c1.4,0,2.7-0.2,3.8-0.5s2.4-0.9,3.5-1.6l2,4.6
		c-1.1,0.9-2.6,1.7-4.3,2.3C188.1,296.6,186.1,296.9,183.9,296.9z M178.5,279.7h9.3v-0.7c0-1.1-0.2-2.1-0.5-2.9
		c-0.3-0.8-0.8-1.4-1.4-1.9c-0.7-0.4-1.5-0.7-2.6-0.7c-1,0-1.8,0.3-2.5,0.8c-0.7,0.5-1.2,1.2-1.6,2.1c-0.4,0.9-0.6,1.9-0.8,3.1
		L178.5,279.7z" />
		<path class="st1" d="M211.7,296.9c-2.7,0-5-0.6-7-1.8c-2-1.2-3.5-2.8-4.6-4.9c-1.1-2.1-1.6-4.4-1.6-7.1v-1c0-2.8,0.5-5.2,1.5-7.3
		c1-2.1,2.5-3.8,4.4-5s4.1-1.8,6.7-1.8c2.5,0,4.6,0.5,6.4,1.5s3,2.4,3.9,4.3c0.9,1.9,1.3,4.1,1.3,6.8v4.1h-16.4l-0.1,0.2
		c0.1,1.2,0.4,2.3,0.9,3.3s1.2,1.7,2.1,2.2c0.9,0.5,2.1,0.8,3.4,0.8c1.4,0,2.7-0.2,3.8-0.5s2.4-0.9,3.5-1.6l2,4.6
		c-1.1,0.9-2.6,1.7-4.3,2.3C216,296.6,214,296.9,211.7,296.9z M206.3,279.7h9.3v-0.7c0-1.1-0.2-2.1-0.5-2.9
		c-0.3-0.8-0.8-1.4-1.4-1.9c-0.7-0.4-1.5-0.7-2.6-0.7c-1,0-1.8,0.3-2.5,0.8c-0.7,0.5-1.2,1.2-1.6,2.1c-0.4,0.9-0.6,1.9-0.8,3.1
		L206.3,279.7z" />
		<path class="st1" d="M236.8,296.9c-2.2,0-4.1-0.6-5.7-1.7c-1.6-1.1-2.8-2.7-3.6-4.8c-0.8-2-1.3-4.4-1.3-7.2v-0.5
		c0-2.9,0.4-5.5,1.3-7.7s2.1-3.9,3.6-5.1c1.6-1.2,3.5-1.8,5.7-1.8c1.5,0,2.9,0.3,4,0.9s2.1,1.5,3,2.6v-10l-4-0.8v-4.5h4h7.5v34.9
		l3.6,0.8v4.5h-10.1l-0.6-3.4c-0.9,1.3-1.9,2.3-3.1,2.9C239.9,296.6,238.5,296.9,236.8,296.9z M239.1,291.1c1,0,2-0.2,2.8-0.7
		s1.4-1.1,2-1.9v-11.8c-0.5-0.9-1.2-1.6-2-2.1c-0.8-0.5-1.7-0.7-2.7-0.7c-1.3,0-2.3,0.4-3.1,1.1c-0.8,0.7-1.4,1.8-1.8,3.1
		c-0.4,1.3-0.6,2.9-0.6,4.6v0.5c0,2.4,0.4,4.4,1.2,5.8C235.8,290.4,237.2,291.1,239.1,291.1z" />
		<path class="st1" d="M272.4,296.9c-2.8,0-5.3-0.3-7.5-0.9c-2.3-0.6-4.5-1.7-6.7-3.2v-9.1h5.8l0.8,5.3c0.8,0.7,1.8,1.2,3.2,1.6
		c1.4,0.4,2.8,0.6,4.4,0.6c1.4,0,2.5-0.2,3.4-0.6c0.9-0.4,1.6-0.9,2.1-1.6c0.5-0.7,0.7-1.5,0.7-2.5c0-0.9-0.2-1.7-0.7-2.4
		c-0.4-0.7-1.2-1.3-2.2-1.9c-1-0.6-2.4-1.1-4.1-1.7c-3-0.9-5.4-1.8-7.4-2.9s-3.4-2.3-4.4-3.7c-1-1.4-1.5-3.2-1.5-5.2
		c0-2,0.6-3.8,1.7-5.4c1.1-1.6,2.7-2.8,4.7-3.7c2-0.9,4.3-1.4,6.9-1.4c2.9,0,5.4,0.3,7.7,1c2.2,0.7,4.1,1.7,5.8,3v8.4h-5.6l-1-5.1
		c-0.7-0.4-1.5-0.8-2.6-1.1c-1.1-0.3-2.4-0.5-3.8-0.5c-1.2,0-2.3,0.2-3.2,0.5c-0.9,0.4-1.6,0.9-2.2,1.6s-0.8,1.5-0.8,2.5
		c0,0.8,0.2,1.6,0.7,2.2c0.5,0.6,1.2,1.2,2.3,1.8c1.1,0.6,2.6,1.2,4.5,1.8c4.1,1.1,7.3,2.7,9.4,4.6c2.1,1.9,3.2,4.4,3.2,7.4
		c0,2.1-0.6,4-1.7,5.5s-2.8,2.7-4.8,3.6C277.6,296.5,275.2,296.9,272.4,296.9z" />
		<path class="st1" d="M302.5,296.9c-2.7,0-5-0.6-6.9-1.8c-1.9-1.2-3.4-2.9-4.5-5c-1-2.1-1.6-4.5-1.6-7.3v-0.8c0-2.7,0.5-5.2,1.6-7.3
		c1.1-2.1,2.6-3.8,4.5-5c1.9-1.2,4.2-1.8,6.8-1.8c2.5,0,4.7,0.4,6.5,1.2c1.8,0.8,3.3,1.7,4.4,2.7l-0.1,8h-5.7l-1-5
		c-0.4-0.4-0.9-0.7-1.6-1s-1.3-0.4-1.9-0.4c-1.4,0-2.5,0.3-3.4,1c-0.9,0.7-1.6,1.7-2,2.9s-0.7,2.8-0.7,4.6v0.8
		c0,1.9,0.2,3.5,0.7,4.7c0.5,1.2,1.2,2.1,2,2.7c0.8,0.6,1.8,0.9,2.8,0.9c1.3,0,2.4-0.3,3.2-1c0.8-0.7,1.4-1.7,1.7-2.9h6.4l0.1,0.2
		c-0.3,2-0.9,3.7-1.7,5.1s-2.1,2.5-3.7,3.3C306.9,296.5,304.9,296.9,302.5,296.9z" />
		<path class="st1" d="M330.5,296.9c-2.7,0-5.1-0.6-7.1-1.8c-2-1.2-3.5-2.9-4.5-5s-1.6-4.6-1.6-7.4v-0.5c0-2.8,0.5-5.2,1.6-7.3
		s2.6-3.8,4.5-5c2-1.2,4.3-1.8,7-1.8c2.8,0,5.1,0.6,7.1,1.8c2,1.2,3.5,2.9,4.5,5c1,2.1,1.6,4.6,1.6,7.4v0.5c0,2.8-0.5,5.2-1.6,7.4
		c-1,2.1-2.5,3.8-4.5,5C335.6,296.3,333.3,296.9,330.5,296.9z M330.5,291.1c1.3,0,2.4-0.4,3.2-1.1c0.8-0.7,1.4-1.7,1.8-2.9
		c0.4-1.3,0.6-2.7,0.6-4.4v-0.5c0-1.6-0.2-3.1-0.6-4.4c-0.4-1.3-1-2.2-1.8-3s-1.9-1.1-3.2-1.1c-1.3,0-2.4,0.4-3.2,1.1
		s-1.5,1.7-1.8,3s-0.6,2.7-0.6,4.4v0.5c0,1.7,0.2,3.2,0.6,4.4s1,2.3,1.8,2.9C328.1,290.8,329.2,291.1,330.5,291.1z" />
		<path class="st1" d="M347.5,296.4v-4.5l3.6-0.8v-17.3l-4-0.8v-4.5h11l0.3,3.4l0.1,0.6c0.7-1.5,1.5-2.7,2.5-3.4
		c1-0.8,2.2-1.2,3.6-1.2c0.4,0,0.9,0,1.5,0.1c0.5,0.1,1,0.2,1.4,0.3l-0.8,6.9l-3.7-0.2c-1.1-0.1-1.9,0.1-2.6,0.5
		c-0.7,0.4-1.2,1-1.8,1.8v13.6l3.6,0.8v4.5H347.5z" />
		<path class="st1" d="M382.6,296.9c-2.7,0-5-0.6-7-1.8c-2-1.2-3.5-2.8-4.6-4.9c-1.1-2.1-1.6-4.4-1.6-7.1v-1c0-2.8,0.5-5.2,1.5-7.3
		c1-2.1,2.5-3.8,4.4-5s4.1-1.8,6.7-1.8c2.5,0,4.6,0.5,6.4,1.5s3,2.4,3.9,4.3c0.9,1.9,1.3,4.1,1.3,6.8v4.1h-16.4l-0.1,0.2
		c0.1,1.2,0.4,2.3,0.9,3.3s1.2,1.7,2.1,2.2c0.9,0.5,2.1,0.8,3.4,0.8c1.4,0,2.7-0.2,3.8-0.5s2.4-0.9,3.5-1.6l2,4.6
		c-1.1,0.9-2.6,1.7-4.3,2.3C386.8,296.6,384.8,296.9,382.6,296.9z M377.2,279.7h9.3v-0.7c0-1.1-0.2-2.1-0.5-2.9
		c-0.3-0.8-0.8-1.4-1.4-1.9c-0.7-0.4-1.5-0.7-2.6-0.7c-1,0-1.8,0.3-2.5,0.8c-0.7,0.5-1.2,1.2-1.6,2.1c-0.4,0.9-0.6,1.9-0.8,3.1
		L377.2,279.7z" />
	</g>
	<g>
		<g>
			<path class="st2" d="M363,314.4v-2h2.2v2H363z" />
			<path class="st2" d="M366.8,314.4v-1.4l1.3-0.3v-6.3l-1.4-0.3v-1.4h3.4l0.1,1.4c0.3-0.5,0.7-0.9,1.2-1.1s1-0.4,1.6-0.4
			c1,0,1.7,0.3,2.3,0.9s0.8,1.5,0.8,2.8v4.4l1.3,0.3v1.4h-4.8v-1.4l1.2-0.3v-4.3c0-0.7-0.1-1.2-0.4-1.5s-0.7-0.5-1.3-0.5
			c-0.4,0-0.8,0.1-1.1,0.3s-0.6,0.5-0.8,0.8v5.2l1.2,0.3v1.4H366.8z" />
			<path class="st2" d="M382.9,314.6c-0.9,0-1.7-0.2-2.3-0.6s-1.2-1-1.5-1.7s-0.5-1.5-0.5-2.4v-0.4c0-0.9,0.2-1.8,0.5-2.5
			s0.9-1.3,1.5-1.7s1.4-0.6,2.2-0.6c0.9,0,1.6,0.2,2.2,0.5s1,0.8,1.3,1.5s0.4,1.4,0.4,2.3v1.3h-5.8l0,0c0,0.5,0.1,0.9,0.3,1.3
			s0.4,0.7,0.8,0.9s0.8,0.3,1.3,0.3c0.5,0,1-0.1,1.4-0.2s0.8-0.3,1.2-0.6l0.7,1.4c-0.4,0.3-0.9,0.6-1.4,0.8S383.6,314.6,382.9,314.6
			z M380.7,308.7h3.7v-0.2c0-0.4-0.1-0.8-0.2-1.1s-0.3-0.6-0.6-0.7s-0.6-0.3-1-0.3c-0.4,0-0.7,0.1-0.9,0.3s-0.5,0.5-0.6,0.8
			S380.8,308.3,380.7,308.7L380.7,308.7z" />
			<path class="st2" d="M391.4,314.6c-0.8,0-1.4-0.2-1.9-0.7s-0.7-1.2-0.7-2.2v-5.2h-1.4v-1.6h1.4v-2.3h2.2v2.3h1.9v1.6H391v5.2
			c0,0.4,0.1,0.7,0.3,0.9s0.4,0.3,0.7,0.3c0.2,0,0.3,0,0.5,0s0.4-0.1,0.5-0.1l0.2,1.6c-0.3,0.1-0.6,0.1-0.9,0.2
			S391.7,314.6,391.4,314.6z" />
		</g>
	</g>
	<g>
		<linearGradient id="SVGID_1_" gradientUnits="userSpaceOnUse" x1="210.4808" y1="179.4589" x2="106.2612" y2="242.6161">
			<stop offset="0" style="stop-color:#FF991A" />
			<stop offset="0.2061" style="stop-color:#FF8127" />
			<stop offset="0.6385" style="stop-color:#FE444A" />
			<stop offset="1" style="stop-color:#FD0C69" />
		</linearGradient>
		<path class="st3" d="M115.1,237.8l6.7,1.5c1.3-2.9,2.8-5.6,4.5-8.3l-6.1-2.9C118.3,231.2,116.6,234.4,115.1,237.8z" />
		<linearGradient id="SVGID_2_" gradientUnits="userSpaceOnUse" x1="205.6282" y1="171.4495" x2="101.4077" y2="234.6073">
			<stop offset="0" style="stop-color:#FF991A" />
			<stop offset="0.2061" style="stop-color:#FF8127" />
			<stop offset="0.6385" style="stop-color:#FE444A" />
			<stop offset="1" style="stop-color:#FD0C69" />
		</linearGradient>
		<path class="st4" d="M142.8,205.4l4.2,5.3c2.3-1.4,4.7-2.7,7.1-3.8l-2.9-6.1C148.3,202.1,145.5,203.7,142.8,205.4z" />
		<linearGradient id="SVGID_3_" gradientUnits="userSpaceOnUse" x1="205.8969" y1="171.8947" x2="101.6774" y2="235.0518">
			<stop offset="0" style="stop-color:#FF991A" />
			<stop offset="0.2061" style="stop-color:#FF8127" />
			<stop offset="0.6385" style="stop-color:#FE444A" />
			<stop offset="1" style="stop-color:#FD0C69" />
		</linearGradient>
		<path class="st5" d="M131.8,213.9l5.3,4.2c2.1-1.9,4.3-3.7,6.6-5.3l-4.2-5.3C136.8,209.5,134.2,211.6,131.8,213.9z" />
		<linearGradient id="SVGID_4_" gradientUnits="userSpaceOnUse" x1="208.6083" y1="176.369" x2="104.389" y2="239.526">
			<stop offset="0" style="stop-color:#FF991A" />
			<stop offset="0.2061" style="stop-color:#FF8127" />
			<stop offset="0.6385" style="stop-color:#FE444A" />
			<stop offset="1" style="stop-color:#FD0C69" />
		</linearGradient>
		<path class="st6" d="M167.7,195.6l1.5,6.6c2.5-0.5,5.1-0.8,7.8-0.9l0-6.7C173.8,194.6,170.7,195,167.7,195.6z" />
		<linearGradient id="SVGID_5_" gradientUnits="userSpaceOnUse" x1="207.4835" y1="174.514" x2="103.2646" y2="237.6707">
			<stop offset="0" style="stop-color:#FF991A" />
			<stop offset="0.2061" style="stop-color:#FF8127" />
			<stop offset="0.6385" style="stop-color:#FE444A" />
			<stop offset="1" style="stop-color:#FD0C69" />
		</linearGradient>
		<path class="st7" d="M122.4,224.8l6.1,3c1.7-2.4,3.7-4.7,5.7-6.8l-5.3-4.2C126.6,219.2,124.4,221.9,122.4,224.8z" />
		<linearGradient id="SVGID_6_" gradientUnits="userSpaceOnUse" x1="206.5377" y1="172.9513" x2="102.3176" y2="236.1087">
			<stop offset="0" style="stop-color:#FF991A" />
			<stop offset="0.2061" style="stop-color:#FF8127" />
			<stop offset="0.6385" style="stop-color:#FE444A" />
			<stop offset="1" style="stop-color:#FD0C69" />
		</linearGradient>
		<path class="st8" d="M154.9,199.2l2.9,6.1c2.4-0.9,5-1.7,7.5-2.4l-1.5-6.6C160.8,197.2,157.8,198.1,154.9,199.2z" />
		<linearGradient id="SVGID_7_" gradientUnits="userSpaceOnUse" x1="214.9348" y1="186.8099" x2="110.7157" y2="249.9668">
			<stop offset="0" style="stop-color:#FF991A" />
			<stop offset="0.2061" style="stop-color:#FF8127" />
			<stop offset="0.6385" style="stop-color:#FE444A" />
			<stop offset="1" style="stop-color:#FD0C69" />
		</linearGradient>
		<path class="st9" d="M110.6,252.6h6.8c0.7-3.3,1.6-6.5,2.8-9.6l-6.6-1.5C112.4,245.1,111.3,248.8,110.6,252.6z" />
		<linearGradient id="SVGID_8_" gradientUnits="userSpaceOnUse" x1="211.7701" y1="181.5858" x2="107.5501" y2="244.7432">
			<stop offset="0" style="stop-color:#FF991A" />
			<stop offset="0.2061" style="stop-color:#FF8127" />
			<stop offset="0.6385" style="stop-color:#FE444A" />
			<stop offset="1" style="stop-color:#FD0C69" />
		</linearGradient>
		<path class="st10" d="M180.9,194.3C180.9,194.3,180.9,194.3,180.9,194.3l0,6.7c0,0,0,0,0,0c2.6,0,5.3,0.2,7.8,0.5l1.5-6.6
		C187.2,194.5,184.1,194.3,180.9,194.3z" />
		<linearGradient id="SVGID_9_" gradientUnits="userSpaceOnUse" x1="215.2534" y1="187.3344" x2="111.0344" y2="250.4913">
			<stop offset="0" style="stop-color:#FF991A" />
			<stop offset="0.2061" style="stop-color:#FF8127" />
			<stop offset="0.6385" style="stop-color:#FE444A" />
			<stop offset="1" style="stop-color:#FD0C69" />
		</linearGradient>
		<path class="st11" d="M194.2,195.6c2.3,0.4,4.6,1,6.8,1.6l-4.1,5.8c-1.4-0.4-2.8-0.7-4.2-0.9L194.2,195.6z" />
		<linearGradient id="SVGID_10_" gradientUnits="userSpaceOnUse" x1="210.3763" y1="227.2016" x2="251.2095" y2="227.2016">
			<stop offset="0" style="stop-color:#31D4F0" />
			<stop offset="0.2634" style="stop-color:#26BCE6" />
			<stop offset="0.817" style="stop-color:#0A7FCE" />
			<stop offset="1" style="stop-color:#0069C5" />
		</linearGradient>
		<path class="st12" d="M251.2,252.6h-6.8c-4.1-19.4-16.8-35.6-34-44.4l2.4-6.3C232.5,211.7,247,230.3,251.2,252.6z" />
	</g>
	<linearGradient id="SVGID_11_" gradientUnits="userSpaceOnUse" x1="153.9276" y1="221.0139" x2="207.8931" y2="221.0139">
		<stop offset="0" style="stop-color:#31D4F0" />
		<stop offset="0.2634" style="stop-color:#26BCE6" />
		<stop offset="0.817" style="stop-color:#0A7FCE" />
		<stop offset="1" style="stop-color:#0069C5" />
	</linearGradient>
	<path class="st13" d="M153.9,224.2c15.5-15.2,39.5-14.2,54,0.2l-4.5,4.5c-14.1-13.1-32-11.8-44.9,0L153.9,224.2z" />
	<linearGradient id="SVGID_12_" gradientUnits="userSpaceOnUse" x1="162.2699" y1="230.9302" x2="199.5508" y2="230.9302">
		<stop offset="0" style="stop-color:#FF991A" />
		<stop offset="0.2061" style="stop-color:#FF8127" />
		<stop offset="0.6385" style="stop-color:#FE444A" />
		<stop offset="1" style="stop-color:#FD0C69" />
	</linearGradient>
	<path class="st14" d="M166.8,237.1c7.1-6.9,18.9-8.4,28.3,0l4.5-4.6c-10-9.9-26.6-10.6-37.3-0.1L166.8,237.1z" />
	<linearGradient id="SVGID_13_" gradientUnits="userSpaceOnUse" x1="170.4038" y1="240.9268" x2="191.4168" y2="240.9268">
		<stop offset="0" style="stop-color:#31D4F0" />
		<stop offset="0.2634" style="stop-color:#26BCE6" />
		<stop offset="0.817" style="stop-color:#0A7FCE" />
		<stop offset="1" style="stop-color:#0069C5" />
	</linearGradient>
	<path class="st15" d="M174.9,245.3c3-3.1,8.8-3.2,11.9,0.2l4.6-4.7c-5.6-5.6-15-6-21-0.1L174.9,245.3z" />
	<linearGradient id="SVGID_14_" gradientUnits="userSpaceOnUse" x1="174.8831" y1="254.9116" x2="186.9375" y2="254.9116">
		<stop offset="0" style="stop-color:#31D4F0" />
		<stop offset="0.2634" style="stop-color:#26BCE6" />
		<stop offset="0.817" style="stop-color:#0A7FCE" />
		<stop offset="1" style="stop-color:#0069C5" />
	</linearGradient>
	<circle class="st16" cx="180.9" cy="254.9" r="6" />
	<linearGradient id="SVGID_15_" gradientUnits="userSpaceOnUse" x1="177.5175" y1="254.9116" x2="184.3031" y2="254.9116">
		<stop offset="0" style="stop-color:#31D4F0" />
		<stop offset="0.2634" style="stop-color:#26BCE6" />
		<stop offset="0.817" style="stop-color:#0A7FCE" />
		<stop offset="1" style="stop-color:#0069C5" />
	</linearGradient>
	<circle class="st17" cx="180.9" cy="254.9" r="3.4" />
	<path class="st18" d="M209,198.7l-22.6,58.7c-3.4-3.3-4.6-3.9-9.7-3.9c-0.6,0-1.3,0-1.9,0.1L209,198.7z" />
	<path class="st1" d="M209,198.7l-22.6,58.7c-3.4-3.3-4.6-3.9-9.7-3.9c-0.6,0-1.3,0-1.9,0.1L209,198.7z" />
	<linearGradient id="SVGID_16_" gradientUnits="userSpaceOnUse" x1="174.8831" y1="254.9116" x2="186.9375" y2="254.9116">
		<stop offset="0" style="stop-color:#FF991A" />
		<stop offset="0.2061" style="stop-color:#FF8127" />
		<stop offset="0.6385" style="stop-color:#FE444A" />
		<stop offset="1" style="stop-color:#FD0C69" />
	</linearGradient>
	<circle class="st19" cx="180.9" cy="254.9" r="6" />
</svg>
