<svg width="48" height="32" viewBox="0 0 48 32" fill="none" xmlns="http://www.w3.org/2000/svg">
<path d="M31.1321 20.9091L21.6914 4.50201L28.4736 0.606415L40.213 20.9091H31.1321Z" fill="white"/>
<path d="M5.98633 18.6104L12.7685 14.6884L16.357 20.9091H7.30241L5.98633 18.6104Z" fill="white"/>
<path d="M19.2969 31.3763H21.2271V23.5676H19.2969V31.3763Z" fill="white"/>
<path d="M43.4861 31.5606C41.3277 31.5606 40.0292 30.4463 39.959 28.8758H41.9945C41.9945 29.3671 42.3016 30.0865 43.6177 30.1129C44.4951 30.1129 44.9074 29.5952 44.9074 29.2092C44.8548 28.595 44.0827 28.5423 43.258 28.4107C42.4332 28.2791 41.7313 28.13 41.2224 27.8668C40.5731 27.5334 40.1345 26.8139 40.1345 25.9892C40.1345 24.5941 41.3453 23.4886 43.3632 23.4886C45.3198 23.4886 46.5569 24.5152 46.6885 26.0418H44.7232C44.7056 25.6294 44.6267 24.9802 43.4685 24.9802C42.6877 24.9802 42.17 25.1381 42.1261 25.6821C42.1261 26.4805 43.7493 26.4279 45.0127 26.7613C46.2235 27.0683 46.9956 27.8229 46.9956 28.8758C46.9956 30.8148 45.4251 31.5606 43.4861 31.5606Z" fill="white"/>
<path d="M13.9355 11.6439L20.7177 7.7308L28.3247 20.9091H21.2266V22.8394H19.2964V20.9003L13.9355 11.6439Z" fill="white"/>
<path d="M14.1121 31.5606C11.866 31.5606 10.041 29.7268 10.041 27.5071C10.041 25.2609 11.866 23.4886 14.1121 23.4886C14.9631 23.4886 15.7352 23.7167 16.4108 24.1818V20.9091H18.3411V31.3763H16.4108V30.8587C15.7352 31.2974 14.9631 31.5606 14.1121 31.5606ZM11.8923 27.5071C11.8923 28.7178 12.9276 29.7268 14.1647 29.7268C15.3755 29.7268 16.4108 28.7178 16.4108 27.5071C16.4108 26.2963 15.3755 25.2609 14.1647 25.2609C12.9276 25.2609 11.8923 26.2963 11.8923 27.5071Z" fill="white"/>
<path d="M28.3776 20.9091H30.2816V31.3763H28.3776V30.8587C27.7284 31.2974 26.9299 31.5606 26.0526 31.5606C23.8328 31.5606 22.0078 29.7268 22.0078 27.5071C22.0078 25.2609 23.8328 23.4886 26.0526 23.4886C26.9299 23.4886 27.702 23.7167 28.3776 24.1818V20.9091ZM23.8854 27.5071C23.8854 28.7178 24.9207 29.7268 26.1052 29.7268C27.3423 29.7268 28.3776 28.7178 28.3776 27.5071C28.3776 26.2963 27.3423 25.2609 26.1052 25.2609C24.9207 25.2609 23.8854 26.2963 23.8854 27.5071Z" fill="white"/>
<path d="M34.9764 31.5606C32.7654 31.5606 30.9316 29.7268 30.9316 27.507C30.9316 25.2609 32.7654 23.4886 34.9764 23.4886C35.8275 23.4886 36.6259 23.7167 37.2751 24.1817V23.5588H39.2054V31.3763H37.2751V30.8586C36.6259 31.2973 35.8538 31.5606 34.9764 31.5606ZM32.8092 27.507C32.8092 28.7178 33.8446 29.7268 35.0553 29.7268C36.2661 29.7268 37.2751 28.7178 37.2751 27.507C37.2751 26.2962 36.2661 25.2609 35.0553 25.2609C33.8446 25.2609 32.8092 26.2962 32.8092 27.507Z" fill="white"/>
<path d="M2.94209 27.507C2.94209 28.7178 3.9774 29.7268 5.18819 29.7268C6.4253 29.7268 7.46062 28.7178 7.46062 27.507C7.46062 26.2962 6.4253 25.2609 5.18819 25.2609C3.9774 25.2609 2.94209 26.2962 2.94209 27.507ZM5.13555 31.5606C2.91576 31.5606 1.08203 29.7268 1.08203 27.507C1.08203 25.2609 2.91576 23.4886 5.13555 23.4886C5.98661 23.4886 6.78503 23.7167 7.46062 24.1817V23.5588H9.36454V31.3763H7.46062V30.8586C6.81136 31.2973 6.01293 31.5606 5.13555 31.5606Z" fill="white"/>
</svg>
