<svg width="104" height="32" viewBox="0 0 104 32" fill="none" xmlns="http://www.w3.org/2000/svg">
<g clip-path="url(#clip0_89_2849)">
<path d="M54.7712 8.04004C54.7712 9.19319 53.8422 10.1221 52.6891 10.1221C51.5359 10.1221 50.607 9.19319 50.607 8.04004C50.607 6.88689 51.5039 5.95796 52.6891 5.95796C53.8743 5.98999 54.7712 6.91892 54.7712 8.04004ZM46.1866 12.2362C46.1866 12.4284 46.1866 12.7487 46.1866 12.7487C46.1866 12.7487 45.1936 11.4675 43.0795 11.4675C39.588 11.4675 36.8653 14.1261 36.8653 17.8098C36.8653 21.4615 39.556 24.1522 43.0795 24.1522C45.2256 24.1522 46.1866 22.8388 46.1866 22.8388V23.3834C46.1866 23.6396 46.3788 23.8318 46.635 23.8318H49.2296V11.7878C49.2296 11.7878 46.8593 11.7878 46.635 11.7878C46.3788 11.7878 46.1866 12.012 46.1866 12.2362ZM46.1866 19.956C45.7061 20.6607 44.7451 21.2693 43.592 21.2693C41.5419 21.2693 39.9724 19.988 39.9724 17.8098C39.9724 15.6316 41.5419 14.3503 43.592 14.3503C44.7131 14.3503 45.7381 14.991 46.1866 15.6637V19.956ZM51.1516 11.7878H54.2266V23.8318H51.1516V11.7878ZM97.0855 11.4675C94.9714 11.4675 93.9784 12.7487 93.9784 12.7487V5.98999H90.9033V23.8318C90.9033 23.8318 93.2737 23.8318 93.4979 23.8318C93.7542 23.8318 93.9464 23.6076 93.9464 23.3834V22.8388C93.9464 22.8388 94.9393 24.1522 97.0535 24.1522C100.545 24.1522 103.268 21.4615 103.268 17.8098C103.268 14.1582 100.545 11.4675 97.0855 11.4675ZM96.573 21.2372C95.3878 21.2372 94.4589 20.6286 93.9784 19.9239V15.6316C94.4589 14.991 95.4839 14.3183 96.573 14.3183C98.623 14.3183 100.193 15.5996 100.193 17.7778C100.193 19.956 98.623 21.2372 96.573 21.2372ZM89.3017 16.6887V23.8639H86.2266V17.041C86.2266 15.0551 85.586 14.2543 83.8563 14.2543C82.9273 14.2543 81.9664 14.7347 81.3578 15.4394V23.8318H78.2827V11.7878H80.7171C80.9734 11.7878 81.1656 12.012 81.1656 12.2362V12.7487C82.0625 11.8198 83.2476 11.4675 84.4328 11.4675C85.7782 11.4675 86.8993 11.8519 87.7962 12.6206C88.8853 13.5175 89.3017 14.6707 89.3017 16.6887ZM70.8192 11.4675C68.7051 11.4675 67.7121 12.7487 67.7121 12.7487V5.98999H64.637V23.8318C64.637 23.8318 67.0074 23.8318 67.2316 23.8318C67.4879 23.8318 67.6801 23.6076 67.6801 23.3834V22.8388C67.6801 22.8388 68.6731 24.1522 70.7872 24.1522C74.2787 24.1522 77.0014 21.4615 77.0014 17.8098C77.0334 14.1582 74.3107 11.4675 70.8192 11.4675ZM70.3067 21.2372C69.1215 21.2372 68.1926 20.6286 67.7121 19.9239V15.6316C68.1926 14.991 69.2176 14.3183 70.3067 14.3183C72.3568 14.3183 73.9263 15.5996 73.9263 17.7778C73.9263 19.956 72.3568 21.2372 70.3067 21.2372ZM61.9784 11.4675C62.9073 11.4675 63.3878 11.6276 63.3878 11.6276V14.4785C63.3878 14.4785 60.8252 13.6136 59.2236 15.4394V23.8639H56.1486V11.7878C56.1486 11.7878 58.5189 11.7878 58.7431 11.7878C58.9994 11.7878 59.1916 12.012 59.1916 12.2362V12.7487C59.7682 12.0761 61.0174 11.4675 61.9784 11.4675ZM30.0424 22.7427C29.8823 22.3584 29.7221 21.9419 29.562 21.5896C29.3057 21.013 29.0495 20.4685 28.8252 19.956L28.7932 19.9239C26.583 15.1191 24.2126 10.2502 21.7141 5.44545L21.618 5.25325C21.3618 4.77277 21.1055 4.26026 20.8493 3.74775C20.5289 3.17117 20.2086 2.56256 19.6961 1.98599C18.6711 0.704705 17.1976 0 15.628 0C14.0264 0 12.585 0.704705 11.5279 1.92192C11.0475 2.4985 10.6951 3.10711 10.3748 3.68368C10.1185 4.1962 9.86227 4.70871 9.60601 5.18919L9.50991 5.38138C7.04345 10.1862 4.64105 15.0551 2.43084 19.8599L2.3988 19.9239C2.17458 20.4364 1.91832 20.981 1.66207 21.5576C1.50191 21.9099 1.34175 22.2943 1.18159 22.7107C0.76517 23.8959 0.637042 25.017 0.797202 26.1702C1.14955 28.5726 2.75116 30.5906 4.96137 31.4875C5.7942 31.8398 6.65906 32 7.55596 32C7.81222 32 8.13254 31.968 8.38879 31.9359C9.44585 31.8078 10.5349 31.4555 11.592 30.8468C12.9053 30.1101 14.1546 29.0531 15.564 27.5155C16.9734 29.0531 18.2547 30.1101 19.5359 30.8468C20.593 31.4555 21.6821 31.8078 22.7391 31.9359C22.9954 31.968 23.3157 32 23.572 32C24.4689 32 25.3658 31.8398 26.1666 31.4875C28.4088 30.5906 29.9784 28.5405 30.3307 26.1702C30.587 25.049 30.4589 23.9279 30.0424 22.7427ZM15.596 24.4084C13.8663 22.2302 12.7451 20.1802 12.3608 18.4504C12.2006 17.7137 12.1686 17.0731 12.2647 16.4965C12.3287 15.984 12.5209 15.5355 12.7772 15.1512C13.3858 14.2863 14.4108 13.7417 15.596 13.7417C16.7812 13.7417 17.8382 14.2543 18.4148 15.1512C18.6711 15.5355 18.8633 15.984 18.9273 16.4965C19.0234 17.0731 18.9914 17.7457 18.8312 18.4504C18.4469 20.1481 17.3257 22.1982 15.596 24.4084ZM28.3768 25.9139C28.1526 27.5796 27.0314 29.021 25.4619 29.6617C24.6931 29.982 23.8603 30.0781 23.0274 29.982C22.2266 29.8859 21.4258 29.6296 20.593 29.1491C19.4398 28.5085 18.2867 27.5155 16.9413 26.042C19.0555 23.4474 20.3367 21.0771 20.8172 18.963C21.0414 17.97 21.0735 17.0731 20.9774 16.2402C20.8493 15.4394 20.561 14.7027 20.1125 14.0621C19.1195 12.6206 17.4539 11.7878 15.596 11.7878C13.7381 11.7878 12.0725 12.6527 11.0795 14.0621C10.631 14.7027 10.3427 15.4394 10.2146 16.2402C10.0865 17.0731 10.1185 18.002 10.3748 18.963C10.8553 21.0771 12.1686 23.4795 14.2507 26.0741C12.9373 27.5475 11.7522 28.5405 10.599 29.1812C9.76617 29.6617 8.96537 29.9179 8.16457 30.014C7.2997 30.1101 6.46687 29.982 5.73013 29.6937C4.16057 29.0531 3.03944 27.6116 2.81522 25.9459C2.71912 25.1451 2.78319 24.3443 3.10351 23.4474C3.1996 23.1271 3.35976 22.8068 3.51992 22.4224C3.74415 21.9099 4.00041 21.3654 4.25666 20.8208L4.28869 20.7568C6.4989 15.984 8.86927 11.1151 11.3357 6.37437L11.4318 6.18218C11.6881 5.7017 11.9443 5.18919 12.2006 4.70871C12.4569 4.1962 12.7451 3.71572 13.0975 3.2993C13.7702 2.53053 14.6671 2.11411 15.6601 2.11411C16.6531 2.11411 17.55 2.53053 18.2226 3.2993C18.575 3.71572 18.8633 4.1962 19.1195 4.70871C19.3758 5.18919 19.632 5.7017 19.8883 6.18218L19.9844 6.37437C22.4188 11.1471 24.7892 16.016 26.9994 20.7888V20.8208C27.2557 21.3333 27.4799 21.9099 27.7361 22.4224C27.8963 22.8068 28.0565 23.1271 28.1526 23.4474C28.4088 24.2803 28.5049 25.0811 28.3768 25.9139Z" fill="#FF5A5F"/>
</g>
<defs>
<clipPath id="clip0_89_2849">
<rect width="102.535" height="32" fill="white" transform="translate(0.732422)"/>
</clipPath>
</defs>
</svg>
