<svg width="108" height="32" viewBox="0 0 108 32" fill="none" xmlns="http://www.w3.org/2000/svg">
<path d="M66.746 24.9994C60.5922 29.5352 51.6727 31.9552 43.9932 31.9552C33.2253 31.9552 23.5314 27.9726 16.1976 21.3486C15.6214 20.8278 16.1377 20.1179 16.8291 20.5235C24.7437 25.1285 34.5298 27.8988 44.6386 27.8988C51.4561 27.8988 58.9558 26.4883 65.8517 23.5612C66.8935 23.1187 67.7647 24.2434 66.746 24.9994Z" fill="#FF9900"/>
<path d="M69.3063 22.0724C68.5227 21.0675 64.1067 21.5976 62.1246 21.8327C61.5208 21.9064 61.4286 21.3809 61.9725 21.0029C65.4896 18.5276 71.2607 19.2421 71.9337 20.0718C72.6067 20.9061 71.7586 26.6911 68.4535 29.4522C67.9465 29.8763 67.4625 29.6505 67.6883 29.0881C68.4305 27.2351 70.0945 23.0818 69.3063 22.0724Z" fill="#FF9900"/>
<path d="M62.2615 3.52808V1.12189C62.2615 0.757734 62.5381 0.513428 62.87 0.513428H73.6425C73.9882 0.513428 74.2648 0.762344 74.2648 1.12189V3.18236C74.2602 3.52808 73.9698 3.97981 73.4535 4.69429L67.8713 12.6642C69.9456 12.6135 72.1352 12.9223 74.0159 13.9825C74.44 14.2222 74.5552 14.5726 74.5875 14.9183V17.4858C74.5875 17.8361 74.2003 18.2464 73.7946 18.0343C70.4803 16.2965 66.0782 16.1075 62.4136 18.0528C62.0402 18.2556 61.6484 17.85 61.6484 17.4996V15.0612C61.6484 14.6694 61.653 14.001 62.0449 13.4064L68.5121 4.13193H62.8838C62.5381 4.13193 62.2615 3.88762 62.2615 3.52808Z" fill="white"/>
<path d="M22.9663 18.5414H19.6889C19.3755 18.5184 19.1266 18.2833 19.1035 17.9836V1.16338C19.1035 0.826883 19.3847 0.559526 19.735 0.559526H22.7912C23.1092 0.573346 23.3627 0.817661 23.3858 1.12189V3.32065H23.4457C24.2432 1.19564 25.7413 0.20459 27.7603 0.20459C29.8115 0.20459 31.093 1.19564 32.0149 3.32065C32.8077 1.19564 34.6101 0.20459 36.5415 0.20459C37.9151 0.20459 39.4178 0.771565 40.3351 2.0438C41.3723 3.45894 41.1602 5.5148 41.1602 7.31714L41.1556 17.9329C41.1556 18.2694 40.8744 18.5414 40.5241 18.5414H37.2513C36.9241 18.5184 36.6613 18.2556 36.6613 17.9329V9.01806C36.6613 8.30819 36.7258 6.53812 36.5691 5.86512C36.3248 4.73579 35.5919 4.41772 34.6423 4.41772C33.8495 4.41772 33.0198 4.94782 32.6833 5.79598C32.3468 6.64414 32.379 8.06388 32.379 9.01806V17.9329C32.379 18.2694 32.0979 18.5414 31.7475 18.5414H28.4747C28.1429 18.5184 27.8847 18.2556 27.8847 17.9329L27.8801 9.01806C27.8801 7.14197 28.1889 4.38085 25.8611 4.38085C23.5056 4.38085 23.5978 7.07283 23.5978 9.01806V17.9329C23.5978 18.2694 23.3166 18.5414 22.9663 18.5414Z" fill="white"/>
<path d="M83.5394 0.20459C88.4024 0.20459 91.0345 4.38085 91.0345 9.69106C91.0345 14.8215 88.1259 18.8917 83.5394 18.8917C78.7639 18.8917 76.1641 14.7155 76.1641 9.51128C76.1641 4.27483 78.7961 0.20459 83.5394 0.20459ZM83.567 3.63871C81.1516 3.63871 80.9995 6.92993 80.9995 8.98118C80.9995 11.037 80.9672 15.4253 83.5394 15.4253C86.0792 15.4253 86.1991 11.8852 86.1991 9.72793C86.1991 8.30819 86.1391 6.61187 85.7105 5.26588C85.3417 4.09506 84.6088 3.63871 83.567 3.63871Z" fill="white"/>
<path d="M97.3406 18.5414H94.0771C93.7498 18.5184 93.487 18.2556 93.487 17.9329L93.4824 1.10806C93.5101 0.799222 93.782 0.559526 94.1139 0.559526H97.1516C97.4374 0.573346 97.6725 0.766956 97.737 1.0297V3.60183H97.797C98.7143 1.30166 100 0.20459 102.264 0.20459C103.734 0.20459 105.168 0.734689 106.09 2.1867C106.947 3.53269 106.947 5.79598 106.947 7.42315V18.0113C106.91 18.3063 106.638 18.5414 106.315 18.5414H103.029C102.729 18.5184 102.48 18.2971 102.448 18.0113V8.87516C102.448 7.03595 102.66 4.34397 100.397 4.34397C99.5993 4.34397 98.8664 4.87868 98.5022 5.68996C98.0413 6.71789 97.9813 7.74121 97.9813 8.87516V17.9329C97.9767 18.2694 97.6909 18.5414 97.3406 18.5414Z" fill="white"/>
<path d="M53.6746 10.507V9.79709C51.3053 9.79709 48.8023 10.3041 48.8023 13.0975C48.8023 14.5127 49.5352 15.4715 50.7936 15.4715C51.7155 15.4715 52.5406 14.9045 53.0615 13.9826C53.7069 12.8486 53.6746 11.7838 53.6746 10.507ZM56.9796 18.4953C56.763 18.6889 56.4495 18.7028 56.2052 18.5737C55.1174 17.6702 54.9238 17.2507 54.3245 16.3888C52.5268 18.2234 51.2546 18.7719 48.9221 18.7719C46.1656 18.7719 44.0176 17.071 44.0176 13.6645C44.0176 11.0048 45.4604 9.19324 47.5116 8.30821C49.2909 7.52458 51.7755 7.3863 53.6746 7.16965V6.74557C53.6746 5.96655 53.7345 5.04464 53.2782 4.37165C52.8771 3.76779 52.112 3.51888 51.439 3.51888C50.1898 3.51888 49.0743 4.15961 48.8023 5.48716C48.747 5.78217 48.5303 6.07257 48.2353 6.0864L45.0547 5.74529C44.7874 5.68537 44.4924 5.46872 44.5661 5.05847C45.299 1.20488 48.7792 0.0432739 51.8953 0.0432739C53.4902 0.0432739 55.5737 0.467353 56.8321 1.67506C58.427 3.16394 58.2749 5.15066 58.2749 7.31254V12.4199C58.2749 13.9549 58.911 14.6279 59.5103 15.4576C59.7223 15.7526 59.7684 16.1076 59.5011 16.3288C58.8327 16.8866 57.6434 17.9237 56.9889 18.5045L56.9796 18.4953Z" fill="white"/>
<path d="M10.7078 10.507V9.79709C8.33849 9.79709 5.8355 10.3041 5.8355 13.0975C5.8355 14.5127 6.56842 15.4715 7.82682 15.4715C8.74874 15.4715 9.57384 14.9045 10.0947 13.9826C10.7401 12.8486 10.7078 11.7838 10.7078 10.507ZM14.0128 18.4953C13.7962 18.6889 13.4827 18.7028 13.2384 18.5737C12.1506 17.6702 11.957 17.2507 11.3577 16.3888C9.56002 18.2234 8.28778 18.7719 5.95535 18.7719C3.19883 18.7719 1.05078 17.071 1.05078 13.6645C1.05078 11.0048 2.49357 9.19324 4.54482 8.30821C6.32411 7.52458 8.80866 7.3863 10.7078 7.16965V6.74557C10.7078 5.96655 10.7677 5.04464 10.3114 4.37165C9.91034 3.76779 9.14516 3.51888 8.47216 3.51888C7.22298 3.51888 6.10746 4.15961 5.8355 5.48716C5.78018 5.78217 5.56353 6.07257 5.26852 6.0864L2.08793 5.74529C1.82058 5.68537 1.52556 5.46872 1.59932 5.05847C2.33224 1.20488 5.81245 0.0432739 8.92851 0.0432739C10.5234 0.0432739 12.6069 0.467353 13.8653 1.67506C15.4602 3.16394 15.3081 5.15066 15.3081 7.31254V12.4199C15.3081 13.9549 15.9443 14.6279 16.5435 15.4576C16.7555 15.7526 16.8016 16.1076 16.5343 16.3288C15.8659 16.8866 14.6766 17.9237 14.0221 18.5045L14.0128 18.4953Z" fill="white"/>
</svg>
