<svg width="32" height="32" viewBox="0 0 32 32" fill="none" xmlns="http://www.w3.org/2000/svg">
<g clip-path="url(#clip0_89_2837)">
<path d="M31.9186 16C31.9186 24.8366 24.7917 32 16.0004 32C7.20893 32 0.0820312 24.8367 0.0820312 16C0.0820312 7.1635 7.20893 0 16.0004 0C24.7918 0 31.9186 7.1635 31.9186 16Z" fill="white"/>
<path d="M15.8689 5.68829C16.4292 6.01129 17.0236 6.42697 17.4761 6.86748L17.2984 7.0461C16.4055 6.95117 15.4651 7.06964 14.6186 7.0827C14.5242 6.98745 14.334 6.84425 14.5112 6.7246L15.8689 5.68829ZM31.6571 16.7799C31.6689 17.1829 31.7068 17.529 31.5496 17.9415C29.9184 18.4055 28.8468 16.6783 27.2641 16.9388L27.443 17.8341C28.9073 17.8822 29.8219 19.2864 31.3347 19.226C31.1198 19.6553 31.4306 20.7862 30.4784 20.3341C29.4901 20.0966 28.7755 19.226 27.6924 19.226C27.5617 19.466 27.6444 19.7982 27.6215 20.082C28.7641 20.2612 29.5858 21.2269 30.7281 21.4052C30.6207 21.7978 30.5142 22.2373 30.1924 22.4767C29.2632 22.2506 28.5373 21.416 27.548 21.4399L27.3718 22.2619C28.312 22.2861 28.9195 23.1179 29.7645 23.3676C29.7877 23.7144 29.4777 24.0242 29.2992 24.3337C28.5491 24.1084 27.9771 23.464 27.12 23.5115C27.1081 23.1887 27.2998 22.822 27.2275 22.4767C26.2649 22.763 25.6194 21.8686 24.906 21.3321C24.8855 19.5764 23.0372 18.4246 22.9396 16.7799C22.9209 16.452 22.9708 16.1019 23.1202 15.7257C23.7277 14.3211 23.5369 12.4976 22.8708 11.188C22.6684 10.8434 22.3097 10.5713 21.9755 10.3687C22.4645 11.4051 23.0604 12.6295 22.763 13.9033C22.7285 14.887 22.1481 15.8317 22.1415 16.7799C22.1393 17.118 22.2114 17.4561 22.4059 17.7975C23.1803 19.1922 24.5735 20.5124 24.0496 22.2616C23.9056 22.7989 23.4766 23.2143 23.3696 23.7611C24.2756 24.5115 25.1322 25.3569 26.3343 25.4046C26.7626 25.131 26.5247 23.9179 27.4058 24.4774L28.6923 25.121C28.5986 25.4654 28.3102 25.774 28.0491 26.0112C27.561 25.7736 27.0848 25.4888 26.4762 25.512C26.2967 25.7024 26.1423 25.9161 26.156 26.1894C26.5843 26.2599 26.9771 26.4407 27.3349 26.6911C27.1688 27.0489 26.8451 27.2731 26.5474 27.5471L25.5495 27.1903C25.3828 27.4287 25.0367 27.6793 25.1582 27.9409C25.3834 28.0373 25.6331 28.1677 25.7989 28.3348C25.3584 28.8109 24.8001 29.1172 24.2628 29.4404C23.8 27.9279 22.2753 26.8674 22.4062 25.1182L22.3353 25.0474C21.9769 25.4504 22.0967 26.0948 22.1198 26.6177C22.5487 27.7133 23.5719 28.5595 23.7271 29.761C23.5479 30.0702 23.144 30.1318 22.8342 30.2627C22.8701 28.0965 19.5844 26.4536 21.6915 24.2625C22.3942 23.1896 23.5716 22.1657 23.1544 20.6886C22.7261 19.2624 21.2112 18.3787 21.2245 16.7799L21.2269 16.6552C21.5719 14.9879 22.6201 13.2138 21.7626 11.4401C21.5237 10.7266 20.9897 9.91593 20.2635 9.61776C21.3462 10.8571 21.7755 12.8792 21.156 14.5468C20.8438 15.2102 20.414 16.0004 20.3709 16.7802H20.3683C20.3453 17.1874 20.4285 17.5924 20.6912 17.9764C21.5134 19.3103 22.9413 20.7756 22.1199 22.514C21.1914 23.9064 19.5722 25.3227 20.4764 27.1567C21.1312 28.2519 22.1441 29.3449 21.8708 30.6913L20.7993 31.0481C21.5137 28.5367 18.013 27.0611 19.4784 24.5488C20.3832 23.2035 22.0014 21.9413 21.0854 20.1558C20.5378 19.0495 19.4062 18.3948 19.4419 17.0122L19.4809 16.7801C19.8496 14.8193 21.3401 12.9633 20.2979 10.868C20.024 10.2493 19.4767 9.61851 18.8693 9.26105L18.8326 9.29776C20.0476 10.4764 20.4173 12.4157 19.7622 13.9746C19.4565 14.8892 18.7857 15.8003 18.6493 16.7804C18.5845 17.2425 18.6392 17.7215 18.9062 18.226C19.68 19.4513 21.0369 20.7511 20.1901 22.3353C19.2984 23.6437 17.8097 24.9169 18.4044 26.6184C19.0593 28.1071 20.427 29.5253 19.6885 31.3712L18.5829 31.6209C19.4636 29.822 18.143 28.0369 17.3694 26.4767C16.4284 24.2383 19.3913 23.1665 19.4388 21.12C19.4276 19.7991 18.0234 19.0491 17.7266 17.8348C17.1188 17.3221 16.4888 18.0387 15.7623 17.9057C15.2259 18.0134 14.402 17.1673 14.0818 18.0845C13.7005 19.4291 11.9633 20.4177 12.7268 22.0126C13.4532 23.4299 15.2016 24.4663 14.6175 26.3005C14.0946 28.0137 12.3673 29.645 13.4386 31.6209C12.9985 31.4784 12.1767 31.7513 12.1885 31.0482C11.5102 28.6553 14.4029 27.2612 13.5094 24.8696C13.0936 23.4046 11.1992 22.5953 11.6163 20.8334C11.9246 19.383 13.5521 18.3691 13.3238 16.7803C13.3053 16.6473 13.2726 16.5111 13.2258 16.3692C12.6183 14.6548 11.379 12.94 12.1177 10.9391C12.3205 10.3676 12.7256 9.87954 13.0815 9.36872C11.9028 9.99952 11.3082 11.3334 11.3326 12.6903C11.2812 14.1659 12.3712 15.43 12.5263 16.7803C12.5873 17.3253 12.4981 17.8833 12.1177 18.4752C11.3444 19.5245 10.3332 20.6308 10.7968 22.0124C11.2376 23.4059 12.9757 24.2501 12.8686 25.8699C12.8568 27.786 10.6304 28.9789 11.2614 31.1218L10.1533 30.7623C9.71331 28.8581 11.7369 27.8839 11.7601 26.1221C12.0465 24.096 9.46244 23.3443 9.61752 21.3693C9.60639 19.8687 10.9273 18.9183 11.5107 17.6561C11.6107 17.3489 11.644 17.0587 11.6306 16.7804C11.5591 15.3848 10.3016 14.2937 10.5103 12.7247C10.5805 11.5699 10.9734 10.5576 11.7237 9.68915C10.6885 10.105 10.2608 11.2967 9.97487 12.297C9.4786 13.9008 10.6632 15.3435 10.782 16.7805C10.8347 17.4151 10.6796 18.046 10.0825 18.691C9.22485 19.7017 8.35507 20.977 8.97431 22.3355C9.63004 23.8343 11.6901 25.001 10.7966 26.8705C10.3091 28.0493 9.1418 28.9417 9.18975 30.3342C8.88045 30.2032 8.55959 30.0726 8.29674 29.8351C8.29674 28.0615 10.8197 26.9537 9.61763 25.0846C9.51114 25.4534 9.48824 25.9546 9.40486 26.3712C8.98769 27.4551 8.09511 28.3228 7.76109 29.4433C7.20254 29.2278 6.61851 28.7748 6.15392 28.2987L6.79745 27.9049C6.72596 27.6663 6.53578 27.4641 6.36947 27.2618C5.95154 27.203 5.67713 27.4772 5.33262 27.5846C5.03499 27.3222 4.74774 27.084 4.51047 26.7626C4.72409 26.1542 6.39323 26.6573 5.54763 25.6569C4.97677 25.3 4.40377 25.8099 3.90386 26.0479L3.22619 25.1919C3.80957 24.8351 4.39146 24.3339 5.11708 24.4776C5.29591 24.7997 5.30833 25.2733 5.65284 25.4414C6.87933 25.4175 7.74836 24.4898 8.68856 23.7634C8.03325 22.7883 7.49985 21.4421 8.08195 20.263C8.54836 19.0813 9.76361 18.0861 9.81872 16.7798C9.83114 16.4825 9.7848 16.1696 9.65476 15.8329C9.01219 14.1778 8.78541 11.9409 10.0119 10.476C9.34504 10.6551 8.95183 11.4863 8.72527 12.1174C7.98798 13.7336 8.92048 15.2308 8.95269 16.7797C8.95708 17.0582 8.9345 17.3375 8.86696 17.6187C8.23574 18.8925 7.21302 20.0102 7.04692 21.476C6.32045 21.9394 5.72401 22.7498 4.68888 22.4763C4.65249 22.7499 4.73586 23.1668 4.83079 23.4767C4.00992 23.4422 3.45019 24.0472 2.75903 24.3329C2.39087 24.2148 2.29508 23.7389 2.15253 23.4058C2.96152 23.1326 3.54512 22.3216 4.47397 22.3344C4.58164 22.0353 4.41361 21.7612 4.3662 21.4757C3.21078 20.9629 1.37929 24.0109 1.22528 21.3683C2.37985 21.2968 3.11767 20.2251 4.2611 20.1183L4.29525 19.2623C2.99759 19.1312 2.1628 20.4652 0.86568 20.3337L0.579606 19.1914C2.08007 19.2852 2.97404 17.9405 4.40302 17.8682C4.59288 17.6185 4.61578 17.2494 4.65238 16.9045C3.09262 16.7012 2.02228 18.4298 0.366843 17.9048C0.366843 17.9048 0.3098 17.1854 0.27887 16.7798H0.281118C0.26988 16.6212 0.259178 16.5106 0.259178 16.5106C1.73535 17.0834 3.03237 16.0231 4.29525 15.4758C4.61642 15.3797 5.11729 15.5463 5.26135 15.1895C5.24882 14.9156 5.7483 14.5954 5.33252 14.4043C3.48625 14.1537 2.25977 16.3806 0.366629 15.368L0.224609 15.0817C0.618456 9.70114 3.653 4.49916 8.68856 1.93926C10.728 0.773779 13.2617 0.179692 15.8169 0.158608C18.9005 0.133029 22.0164 0.941912 24.3343 2.58269C26.5852 3.9634 28.7383 6.23882 29.9068 8.54871C31.0243 10.5725 31.5387 12.8435 31.6923 15.2611C29.7393 16.7367 28.4291 13.8709 26.4404 14.5123C26.5476 14.8224 26.6068 15.1433 26.8342 15.4052C28.5967 15.3927 29.8105 17.2383 31.6555 16.5109L31.6571 16.7799ZM9.22367 10.1532C7.98531 9.34336 6.41527 10.1059 5.26113 10.5469C5.154 9.46301 4.71381 8.4755 3.79598 7.76123C3.70694 7.71692 3.58386 7.6237 3.47298 7.61686C3.40663 7.61268 3.34349 7.63944 3.29447 7.72431C3.71047 10.2836 2.04679 12.0694 0.86782 14.0108C1.26038 14.3316 1.89107 14.2837 2.36722 14.1894C3.61704 13.6896 4.80757 12.8197 6.29573 13.1179C6.73581 12.3678 7.47523 11.6414 8.08152 11.0461C8.45193 10.7256 8.96082 10.522 9.22367 10.1532ZM13.0104 11.7605C12.9866 11.9146 13.0223 12.1893 13.2598 12.0832C13.6295 11.5713 14.284 11.9762 14.6885 12.0123V11.8683C14.4665 11.5197 14.0099 11.3446 13.5461 11.362C13.4391 11.3658 13.3304 11.3814 13.2257 11.4057C13.0705 11.4402 12.9625 11.5822 13.0104 11.7605ZM18.832 10.2267C18.4996 9.48837 17.7376 9.18956 17.0461 9.01105C16.7072 8.96931 16.3554 8.94106 16.0065 8.93774C15.9411 8.9371 15.8758 8.93624 15.8108 8.93774C14.8348 8.95743 13.9023 9.20797 13.3326 10.0113C13.2509 10.2381 12.8914 10.5566 13.2252 10.7598C13.9753 10.7119 14.8313 10.6178 15.3313 11.2615C15.3313 11.8336 15.7006 12.5946 15.0818 12.8685C14.5691 12.3937 13.9618 13.0706 13.4039 12.6896C13.1416 12.5346 12.9756 12.7155 12.8681 12.9416C12.7131 14.4176 13.4859 16.0464 14.8667 16.8676C15.4263 17.0695 16.1786 17.2615 16.7626 16.9751C18.1674 16.321 18.7493 14.8218 19.0109 13.4405C18.9758 13.1777 18.9883 12.6655 18.6195 12.6531C18.203 12.9164 17.5957 12.7608 17.1543 12.6531C16.8934 12.7373 16.8814 13.119 16.5844 13.1914L16.4034 13.047C16.2485 12.3932 16.1529 11.4642 16.7607 11.0119C17.4399 10.738 18.2375 10.6183 18.9399 10.8332C19.071 10.6072 18.8686 10.4292 18.832 10.2267ZM18.1153 11.4007C18.0681 11.4018 18.0222 11.4042 17.9757 11.4057C17.7263 11.5721 16.9992 11.4525 17.2617 12.0123C17.7144 11.6542 18.3454 11.9052 18.7978 12.0832C18.9651 12.0001 18.9288 11.8334 18.9398 11.6896C18.7946 11.4194 18.4475 11.394 18.1153 11.4007ZM23.2989 6.36693C22.4176 6.32016 21.6797 6.82039 20.87 7.04674C20.7994 6.35773 21.3229 5.63007 21.4423 4.93838C20.1331 5.02261 19.0962 5.81062 18.0131 6.44013C17.7624 5.83449 17.511 5.22574 17.2621 4.61785L18.6908 3.26025L18.7274 3.08142L16.7976 2.97397C16.4652 2.39154 16.3342 1.69001 15.9413 1.15425C15.6198 1.76139 15.4038 2.40396 15.0827 3.01057L13.1552 3.11834V3.26025L14.6181 4.58114C14.4392 5.26009 14.273 5.99781 13.833 6.51098C12.9758 5.99759 12.1309 5.43882 11.1911 5.08233C10.9649 5.00934 10.6426 4.89065 10.4402 5.04572C10.7374 5.70071 11.1536 6.40524 11.0836 7.12016C10.6905 7.04781 10.3816 6.79577 10.0122 6.68982C9.57054 6.56931 9.04644 6.33386 8.61792 6.47706C9.33241 7.47655 9.91558 8.52259 10.1173 9.72543C12.4876 8.58146 15.2518 7.95227 18.1211 8.44115C19.466 8.6552 20.7028 9.20305 21.9054 9.65437C21.9524 8.3931 22.75 7.37958 23.2989 6.36693ZM27.3692 13.2254C28.5826 13.5466 29.7999 14.8687 31.0848 14.0109C29.9658 12.1539 28.3002 10.4391 28.7634 8.0107C28.8118 7.84492 28.7047 7.67711 28.5506 7.65356C27.8247 7.95023 27.2625 8.66547 26.9752 9.36851C26.8571 9.78429 26.7871 10.2263 26.6207 10.6182C25.751 10.1656 24.823 9.72714 23.7634 9.8331C23.3814 9.88072 22.8336 9.90576 22.7631 10.298C23.9655 10.9406 24.9543 12.0129 25.6912 13.1549C26.2042 13.0712 26.8334 13.1427 27.3692 13.2254ZM14.6541 14.9037L14.6884 15.1189C15.1536 15.4288 15.2967 15.9541 15.9408 15.9064C16.512 15.9403 16.9405 15.4052 17.2251 14.9769C16.4521 14.8702 15.5116 15.0353 14.6541 14.9037ZM15.2974 13.9399C15.3206 14.0353 15.2384 14.1781 15.3682 14.2263C15.7492 14.1436 16.4394 14.429 16.6522 13.9766C16.5036 13.8102 16.2611 13.7346 16.0066 13.7346C15.7522 13.7346 15.4882 13.8088 15.2974 13.9399Z" fill="#007042"/>
<path opacity="0.99" d="M14.6562 13.5268H17.2668V14.5993H14.6562V13.5268Z" fill="white"/>
<path d="M15.1385 14.1002C15.4758 14.1801 15.5593 14.2997 15.8259 14.3331C16.1093 14.3281 16.0684 14.2705 16.5627 14.0999C16.5952 14.0885 16.6398 14.0169 16.5845 13.962C16.2775 13.6573 16.0654 13.875 15.873 13.8807C15.6177 13.8835 15.3783 13.6622 15.129 13.9499C15.0865 14.0083 15.0643 14.0657 15.1385 14.1002Z" fill="#007042"/>
<path d="M27.4694 31.6974V30.1698H26.9238V29.8588H28.3849V30.1698H27.8406V31.6974H27.4694Z" fill="#007042"/>
<path d="M28.6211 31.6973V29.8587H29.1767L29.5102 31.1129L29.8401 29.8587H30.3969V31.6973H30.052V30.2501L29.687 31.6973H29.3296L28.9659 30.2501V31.6973H28.6211Z" fill="#007042"/>
</g>
<defs>
<clipPath id="clip0_89_2837">
<rect width="31.8367" height="32" fill="white" transform="translate(0.0820312)"/>
</clipPath>
</defs>
</svg>
