<svg width="40" height="40" viewBox="0 0 40 40" fill="none" xmlns="http://www.w3.org/2000/svg">
<rect width="40" height="40" rx="20" fill="url(#paint0_linear_555_3453)"/>
<g clip-path="url(#clip0_555_3453)">
<path d="M26.0871 15.9236H13.9122C13.6414 15.9236 13.4219 16.1431 13.4219 16.4139V26.6236C13.4219 26.8944 13.6414 27.1139 13.9122 27.1139H16.0827V30.5546C16.0827 31.3529 16.7299 32.0001 17.5282 32.0001C18.3265 32.0001 18.9737 31.353 18.9737 30.5546V27.1139H20.9955V30.5546C20.9955 31.3529 21.6427 32.0001 22.441 32.0001C23.2393 32.0001 23.8865 31.353 23.8865 30.5546V27.1139H26.0872C26.358 27.1139 26.5775 26.8944 26.5775 26.6236V16.4139C26.5775 16.1431 26.3579 15.9236 26.0871 15.9236Z" fill="white"/>
<path d="M11.3605 15.9211C10.5622 15.9211 9.91504 16.5683 9.91504 17.3666V23.2377C9.91504 24.036 10.5622 24.6832 11.3605 24.6832C12.1588 24.6832 12.8061 24.0361 12.8061 23.2377V17.3666C12.806 16.5683 12.1588 15.9211 11.3605 15.9211Z" fill="white"/>
<path d="M28.6389 15.9211C27.8406 15.9211 27.1934 16.5683 27.1934 17.3666V23.2377C27.1934 24.036 27.8405 24.6832 28.6389 24.6832C29.4372 24.6832 30.0844 24.0361 30.0844 23.2377V17.3666C30.0844 16.5683 29.4372 15.9211 28.6389 15.9211Z" fill="white"/>
<path d="M14.0104 15.2074H25.9595C26.2712 15.2074 26.5037 14.9203 26.4397 14.6152C26.0444 12.7314 24.845 11.1438 23.2176 10.2267L24.2391 8.38366C24.3082 8.25887 24.2631 8.10162 24.1383 8.03249C24.0133 7.96318 23.8563 8.00844 23.7871 8.13322L22.7579 9.99019C21.9149 9.599 20.9755 9.38052 19.9849 9.38052C18.9943 9.38052 18.0549 9.599 17.2119 9.99019L16.1827 8.13316C16.1135 8.00832 15.9562 7.9633 15.8315 8.03243C15.7067 8.10156 15.6617 8.25882 15.7308 8.3836L16.7523 10.2267C15.1248 11.1438 13.9255 12.7313 13.5302 14.6152C13.4661 14.9203 13.6986 15.2074 14.0104 15.2074ZM23.5504 12.4607C23.5504 12.7675 23.3016 13.0163 22.9947 13.0163C22.6879 13.0163 22.4391 12.7676 22.4391 12.4607C22.4391 12.1538 22.6878 11.905 22.9947 11.905C23.3016 11.905 23.5504 12.1538 23.5504 12.4607ZM16.975 11.905C17.2819 11.905 17.5307 12.1538 17.5307 12.4607C17.5307 12.7675 17.2819 13.0163 16.975 13.0163C16.6682 13.0163 16.4194 12.7676 16.4194 12.4607C16.4194 12.1538 16.6681 11.905 16.975 11.905Z" fill="white"/>
</g>
<defs>
<linearGradient id="paint0_linear_555_3453" x1="0" y1="20" x2="40" y2="20" gradientUnits="userSpaceOnUse">
<stop stop-color="#34BDE3"/>
<stop offset="1" stop-color="#0379CC"/>
</linearGradient>
<clipPath id="clip0_555_3453">
<rect width="24" height="24" fill="white" transform="translate(8 8)"/>
</clipPath>
</defs>
</svg>
