<svg width="40" height="40" viewBox="0 0 40 40" fill="none" xmlns="http://www.w3.org/2000/svg">
<rect width="40" height="40" rx="20" fill="url(#paint0_linear_555_3460)"/>
<path fill-rule="evenodd" clip-rule="evenodd" d="M23.6849 11.8314C24.5598 10.8175 25.1495 9.40518 24.9881 8C23.7273 8.048 22.202 8.80538 21.298 9.81816C20.4863 10.717 19.7776 12.1531 19.9681 13.5307C21.3745 13.6351 22.81 12.8466 23.6849 11.8314ZM26.8386 20.75C26.8738 24.3824 30.1634 25.5907 30.1998 25.6063C30.1731 25.6915 29.6744 27.3279 28.467 29.0199C27.4222 30.4815 26.3387 31.9372 24.6313 31.9684C22.9544 31.9984 22.4144 31.0156 20.496 31.0156C18.5787 31.0156 17.9793 31.937 16.3921 31.9982C14.7443 32.057 13.4884 30.4169 12.4363 28.9602C10.2837 25.9806 8.63948 20.5401 10.8479 16.8682C11.9449 15.0454 13.9046 13.8893 16.0329 13.8605C17.6505 13.8305 19.1782 14.9035 20.1671 14.9035C21.1561 14.9035 23.0126 13.6135 24.9638 13.8031C25.7805 13.8355 28.0739 14.1186 29.5458 16.1838C29.4268 16.2546 26.8095 17.714 26.8386 20.75Z" fill="white"/>
<defs>
<linearGradient id="paint0_linear_555_3460" x1="0" y1="20" x2="40" y2="20" gradientUnits="userSpaceOnUse">
<stop stop-color="#34BDE3"/>
<stop offset="1" stop-color="#0379CC"/>
</linearGradient>
</defs>
</svg>
