<svg width="16" height="17" viewBox="0 0 16 17" fill="none" xmlns="http://www.w3.org/2000/svg">
<path d="M2.6665 9.83333V7.83333C2.6665 6.41885 3.22841 5.06229 4.2286 4.0621C5.2288 3.0619 6.58535 2.5 7.99984 2.5C9.41433 2.5 10.7709 3.0619 11.7711 4.0621C12.7713 5.06229 13.3332 6.41885 13.3332 7.83333V9.83333M2.6665 9.83333C2.6665 9.47971 2.80698 9.14057 3.05703 8.89052C3.30708 8.64048 3.64622 8.5 3.99984 8.5H4.6665C5.02013 8.5 5.35926 8.64048 5.60931 8.89052C5.85936 9.14057 5.99984 9.47971 5.99984 9.83333V11.8333C5.99984 12.187 5.85936 12.5261 5.60931 12.7761C5.35926 13.0262 5.02013 13.1667 4.6665 13.1667H3.99984C3.64622 13.1667 3.30708 13.0262 3.05703 12.7761C2.80698 12.5261 2.6665 12.187 2.6665 11.8333V9.83333ZM13.3332 9.83333C13.3332 9.47971 13.1927 9.14057 12.9426 8.89052C12.6926 8.64048 12.3535 8.5 11.9998 8.5H11.3332C10.9795 8.5 10.6404 8.64048 10.3904 8.89052C10.1403 9.14057 9.99984 9.47971 9.99984 9.83333V11.8333C9.99984 12.187 10.1403 12.5261 10.3904 12.7761C10.6404 13.0262 10.9795 13.1667 11.3332 13.1667H11.9998M13.3332 9.83333V11.8333C13.3332 12.187 13.1927 12.5261 12.9426 12.7761C12.6926 13.0262 12.3535 13.1667 11.9998 13.1667M11.9998 13.1667C11.9998 14.2713 10.2092 15.1667 7.99984 15.1667" stroke="white" stroke-width="1.33333" stroke-linecap="round" stroke-linejoin="round"/>
</svg>
